<svg version="1.1" id="Layer_1" xmlns="http://www.w3.org/2000/svg" xmlns:xlink="http://www.w3.org/1999/xlink" x="0px" y="0px"
	 width="100%" viewBox="0 0 8000 8000" enable-background="new 0 0 8000 8000" xml:space="preserve">
<path fill="#000000" opacity="1.000000" stroke="none" 
	d="
M4252.000000,8004.000000 
	C2834.666748,8004.000000 1419.333374,8004.000000 4.000000,8004.000000 
	C4.000000,5337.333496 4.000000,2670.666748 4.000000,4.000001 
	C2670.666748,4.000001 5337.333496,4.000001 8004.000000,4.000000 
	C8004.000000,2670.666748 8004.000000,5337.333496 8004.000000,8004.000000 
	C6754.000000,8004.000000 5504.000000,8004.000000 4252.000000,8004.000000 
M6687.551270,7016.498047 
	C6690.340820,7015.937988 6693.130859,7015.377930 6698.750977,7015.171875 
	C6703.241211,7014.217773 6707.731445,7013.263672 6715.371582,7011.968750 
	C6719.465820,7010.842285 6723.569336,7009.746582 6727.651855,7008.579102 
	C6730.534668,7007.754395 6733.389648,7006.833496 6738.577637,7005.379883 
	C6743.692871,7003.039551 6748.807617,7000.699219 6756.486328,6996.950684 
	C6764.942871,6993.318848 6773.665039,6990.196777 6781.801270,6985.951660 
	C6799.718262,6976.601562 6816.814941,6965.812500 6834.070801,6955.291992 
	C6859.593262,6939.731934 6883.494629,6922.640625 6898.392090,6895.699219 
	C6899.017578,6894.568359 6899.829102,6893.437988 6900.815918,6892.625000 
	C6912.204102,6883.244629 6918.953613,6870.324219 6929.067383,6856.710449 
	C6942.291992,6835.834473 6953.543945,6813.922363 6963.341309,6791.255371 
	C6966.641602,6783.618652 6973.434082,6777.511230 6971.932129,6767.752441 
	C6970.839355,6760.650391 6971.412598,6753.553223 6977.171875,6747.461426 
	C6979.438965,6745.063477 6979.120605,6740.094238 6979.694336,6736.253418 
	C6980.468750,6731.073242 6980.968750,6725.851562 6984.578613,6719.490723 
	C6990.240723,6712.417969 6987.529785,6704.102539 6987.532715,6696.413086 
	C6987.683594,6314.471680 6987.661621,5932.530762 6987.684570,5550.589355 
	C6987.685547,5540.711426 6987.093750,5531.014648 6991.897461,5521.429199 
	C6994.705078,5515.828125 6994.519043,5508.452637 6994.674805,5501.851562 
	C6995.036621,5486.529297 6995.087402,5471.184570 6994.669434,5455.865234 
	C6994.435059,5447.262695 6994.967285,5437.825195 6991.631836,5430.331055 
	C6987.564941,5421.190430 6987.698242,5412.348633 6987.696777,5403.162109 
	C6987.657715,5100.541992 6987.660156,4797.921875 6987.683105,4495.301758 
	C6987.684082,4485.429199 6986.527344,4475.426270 6992.852051,4466.478516 
	C6994.578125,4464.036621 6994.666504,4460.097656 6994.683594,4456.841309 
	C6994.813477,4432.204590 6994.835449,4407.565918 6994.627441,4382.930176 
	C6994.594727,4379.010742 6994.035156,4374.711914 6992.344727,4371.262207 
	C6987.157227,4360.675781 6987.633301,4349.517090 6987.634277,4338.274414 
	C6987.669922,3954.333252 6987.664062,3570.392334 6987.657715,3186.451172 
	C6987.657715,3180.452881 6988.066895,3174.393311 6987.324707,3168.482666 
	C6986.954102,3165.534180 6984.407227,3162.859131 6981.551758,3157.158691 
	C6980.943848,3151.967285 6980.321289,3146.777344 6979.731445,3141.583740 
	C6979.284668,3137.649658 6979.818848,3133.278564 6978.250488,3129.867676 
	C6975.246094,3123.335449 6969.955078,3117.744873 6971.696777,3109.672852 
	C6973.485352,3101.386230 6964.894043,3096.919922 6964.098145,3089.970459 
	C6963.296387,3082.970947 6960.000977,3078.107422 6956.419922,3072.423584 
	C6953.149414,3067.232666 6952.750488,3060.346924 6948.200195,3054.952881 
	C6944.074219,3050.061768 6941.791992,3043.573975 6938.905762,3037.687744 
	C6927.137695,3013.689453 6908.807617,2994.333008 6892.391602,2973.802490 
	C6882.173340,2961.023193 6868.503906,2950.842773 6855.692383,2940.338623 
	C6840.883301,2928.196777 6825.729980,2916.692871 6808.541504,2907.530029 
	C6791.760254,2898.583984 6776.059082,2887.483398 6758.580078,2879.680176 
	C6741.222168,2871.931152 6724.005371,2863.601318 6704.459961,2862.708008 
	C6701.845703,2862.588623 6698.909180,2862.503174 6696.717773,2861.308350 
	C6684.904297,2854.866211 6672.364258,2855.761230 6656.104492,2856.160645 
	C6577.405762,2856.155518 6498.706543,2856.150146 6417.702637,2854.187988 
	C6412.150879,2852.966797 6406.599609,2851.745605 6400.060059,2850.307129 
	C6408.910156,2844.126221 6420.362793,2852.878662 6427.747559,2840.469238 
	C6419.301270,2840.928955 6413.057129,2837.611328 6408.330566,2831.807861 
	C6407.663574,2830.989014 6407.646484,2829.641602 6407.132324,2827.857178 
	C6411.330078,2826.266602 6415.480469,2824.694092 6420.913086,2822.635742 
	C6419.299316,2818.578857 6418.417969,2814.893311 6416.494629,2811.870361 
	C6413.570801,2807.272949 6418.520020,2805.083984 6419.023438,2800.683105 
	C6416.727539,2800.041992 6414.101562,2799.739502 6411.893555,2798.615479 
	C6403.744629,2794.466309 6396.234863,2788.850586 6386.121582,2790.305908 
	C6383.942871,2790.619385 6381.465820,2788.065186 6378.985840,2787.271484 
	C6375.287109,2786.087646 6371.500000,2784.691895 6367.685059,2784.457520 
	C6359.163086,2783.934570 6350.599609,2785.288574 6343.293945,2778.409668 
	C6340.908691,2776.164307 6335.685547,2776.655273 6331.729980,2776.424316 
	C6326.417480,2776.114258 6321.048340,2776.645752 6315.751465,2776.222900 
	C6308.017090,2775.606201 6301.606934,2772.470703 6299.792969,2764.149414 
	C6298.292969,2757.271973 6292.632324,2754.969482 6287.592285,2752.064697 
	C6283.639648,2749.787354 6279.267578,2748.227051 6275.048340,2746.426270 
	C6266.646973,2742.840820 6258.306152,2736.679199 6249.785645,2736.405029 
	C6238.501953,2736.041992 6231.709961,2729.050537 6223.000000,2724.831299 
	C6221.331543,2724.023193 6219.063477,2724.469971 6217.074707,2724.304443 
	C6211.109375,2723.808594 6205.150391,2722.949463 6199.180176,2722.866455 
	C6188.229492,2722.714111 6179.029297,2717.289062 6170.567871,2711.830566 
	C6163.300781,2707.142334 6155.965332,2703.341797 6148.039062,2700.112793 
	C6133.377441,2694.139648 6118.923340,2691.603027 6104.294434,2699.890869 
	C6099.502441,2702.605957 6094.551758,2703.857666 6088.545898,2701.360840 
	C6085.323242,2694.083008 6086.886230,2685.991943 6086.883789,2678.175781 
	C6086.792480,2399.685547 6086.806641,2121.195557 6086.804688,1842.705322 
	C6086.804688,1836.709106 6087.207031,1830.672852 6086.639648,1824.729858 
	C6086.206543,1820.190308 6085.991211,1813.963867 6083.125977,1811.650879 
	C6075.989258,1805.890015 6078.457520,1798.527222 6076.944824,1791.685547 
	C6075.467773,1785.005493 6071.859863,1778.799927 6069.245605,1772.362671 
	C6069.013184,1771.789429 6069.089844,1771.017944 6069.222656,1770.380127 
	C6070.863281,1762.499756 6066.408691,1756.689575 6062.991211,1750.264038 
	C6049.685547,1725.246338 6035.158691,1701.233276 6012.909668,1682.882935 
	C5995.208008,1668.283569 5979.265625,1651.449829 5957.157715,1642.710815 
	C5946.919922,1638.664185 5937.848633,1631.733643 5927.717773,1627.331909 
	C5918.117676,1623.160400 5907.992188,1619.804199 5897.772461,1617.595337 
	C5891.423828,1616.223022 5884.904297,1616.815796 5878.726074,1613.276489 
	C5874.959961,1611.119141 5869.720703,1610.993408 5865.127441,1610.917969 
	C5849.141602,1610.655518 5833.148926,1610.754272 5817.160156,1610.859253 
	C5813.859375,1610.880981 5810.026855,1610.554810 5807.353027,1612.036499 
	C5792.459961,1620.288940 5774.771973,1615.789307 5759.467285,1623.236816 
	C5753.378906,1626.199463 5745.310059,1624.786011 5739.301758,1630.220093 
	C5737.299316,1632.031372 5732.981934,1631.370605 5729.706543,1631.665527 
	C5725.751465,1632.021484 5720.951660,1630.863281 5717.982422,1632.712769 
	C5711.292969,1636.879395 5704.298828,1636.837158 5697.005859,1637.445435 
	C5691.872559,1637.873535 5686.888184,1640.253418 5681.872559,1641.869507 
	C5678.779785,1642.865967 5675.733887,1645.056030 5672.698242,1645.000854 
	C5659.759766,1644.765869 5649.115234,1653.561646 5636.377930,1653.743530 
	C5630.285156,1658.701172 5622.922852,1658.456909 5615.652344,1659.351685 
	C5608.576660,1660.222534 5601.769531,1663.387085 5594.695801,1664.132812 
	C5587.285645,1664.913940 5580.276855,1666.100098 5573.705078,1669.744751 
	C5571.473145,1670.983032 5568.771484,1672.260986 5566.357910,1672.133057 
	C5556.157227,1671.592285 5546.854004,1673.876587 5537.579590,1678.192627 
	C5533.748535,1679.975464 5528.474609,1678.657471 5524.767578,1677.731201 
	C5524.767578,1677.731201 5523.858398,1676.711304 5524.728516,1674.057373 
	C5536.968750,1665.655762 5544.378418,1658.526367 5549.846191,1649.637451 
	C5547.121094,1649.077393 5544.660156,1648.397949 5542.152832,1648.096191 
	C5538.228516,1647.623657 5535.756836,1645.338379 5536.219238,1641.671143 
	C5536.462891,1639.737549 5538.910645,1637.718018 5540.833496,1636.450439 
	C5543.348633,1634.792236 5546.329590,1633.839233 5548.663574,1632.784546 
	C5545.593262,1620.411621 5538.382324,1614.084473 5527.791992,1611.105103 
	C5524.702148,1610.235596 5521.737793,1608.882568 5518.767090,1607.630859 
	C5510.591797,1604.187744 5502.990234,1599.894653 5503.017578,1589.622070 
	C5503.034668,1583.347778 5499.511719,1580.065063 5495.193359,1576.690430 
	C5492.738770,1574.772339 5490.837402,1572.145752 5489.243652,1570.435547 
	C5491.186523,1567.176270 5492.481934,1565.003174 5493.369141,1563.515015 
	C5488.532227,1553.518555 5480.354980,1551.807983 5471.690430,1549.986694 
	C5471.690430,1549.986694 5471.473145,1548.408936 5473.931152,1547.050659 
	C5482.181152,1540.526245 5486.570312,1533.014526 5484.126953,1521.618774 
	C5482.495117,1514.008057 5484.115723,1505.755737 5483.574219,1497.839111 
	C5483.081055,1490.631592 5483.497070,1482.436768 5480.178711,1476.559692 
	C5474.893555,1467.199097 5474.729980,1457.805908 5474.770020,1447.911621 
	C5474.785645,1443.958984 5474.997070,1439.833984 5473.929688,1436.130615 
	C5473.466797,1434.527100 5469.995117,1433.791382 5465.365723,1429.936523 
	C5465.187012,1423.294067 5465.127441,1416.645508 5464.783691,1410.011597 
	C5464.579102,1406.070068 5465.271973,1401.097534 5463.192871,1398.443726 
	C5458.960938,1393.041138 5459.746582,1387.303101 5459.323730,1381.445801 
	C5459.090820,1378.209961 5459.391602,1374.053467 5457.562500,1371.976074 
	C5451.502930,1365.093994 5453.108398,1357.110107 5452.818848,1349.302002 
	C5452.549316,1342.029053 5454.169922,1333.791138 5451.265625,1327.754761 
	C5448.168457,1321.317627 5447.676758,1315.340698 5447.312500,1308.810181 
	C5447.130859,1305.554688 5447.307129,1301.628418 5445.602051,1299.226807 
	C5439.658691,1290.857056 5441.210938,1281.526245 5440.737793,1272.342896 
	C5440.436035,1266.483643 5440.918457,1259.636230 5438.072754,1255.097900 
	C5434.575195,1249.519775 5433.831055,1244.261353 5433.746582,1238.270020 
	C5433.690430,1234.307373 5434.571777,1229.373291 5432.608887,1226.575439 
	C5426.652832,1218.084961 5428.495605,1208.834473 5428.018066,1199.707520 
	C5427.745605,1194.498535 5428.334961,1188.322266 5425.767578,1184.388916 
	C5422.552734,1179.463501 5422.522461,1174.658081 5421.565430,1169.522217 
	C5420.514160,1163.881958 5416.380371,1158.454834 5416.555176,1153.030273 
	C5416.833984,1144.373535 5413.291992,1137.743042 5409.324219,1130.881104 
	C5407.356934,1127.479126 5404.296387,1124.211792 5403.762207,1120.584595 
	C5402.712402,1113.456787 5397.626953,1108.971191 5394.437012,1103.276733 
	C5391.266113,1097.616333 5388.781250,1091.351074 5384.653320,1086.490723 
	C5373.977051,1073.918823 5363.626953,1060.735718 5351.203125,1050.057617 
	C5330.053711,1031.879639 5307.060547,1015.884216 5280.293457,1006.724243 
	C5264.697266,1001.387146 5249.342285,994.513489 5229.630371,993.730957 
	C5223.764160,992.841980 5217.921875,991.467896 5212.025879,991.178894 
	C5203.393555,990.755737 5194.712891,991.387695 5186.070312,991.083374 
	C5154.847168,989.983887 5125.400879,997.449585 5097.200684,1010.009155 
	C5057.219238,1027.815674 5017.490723,1046.190918 4977.675293,1064.369141 
	C4917.314453,1091.927368 4856.948730,1119.474731 4796.635742,1147.136719 
	C4779.146973,1155.157715 4761.927734,1163.768799 4744.414062,1171.734497 
	C4707.600586,1188.478882 4670.604004,1204.820801 4633.810547,1221.608887 
	C4580.674316,1245.854004 4527.694336,1270.439575 4474.571777,1294.714233 
	C4406.995605,1325.593262 4339.319824,1356.253052 4271.736328,1387.115601 
	C4240.973145,1401.163818 4210.329102,1415.471802 4176.453125,1430.655640 
	C4161.569824,1431.115112 4148.738281,1438.312500 4135.713867,1444.063843 
	C4111.216309,1454.881470 4087.857178,1468.214600 4062.722168,1477.699585 
	C4049.181152,1482.809448 4037.963135,1492.927368 4023.443115,1495.930542 
	C4011.850830,1505.983765 3994.582031,1504.294800 3983.435791,1515.270752 
	C3943.922363,1529.078735 3907.473877,1549.836060 3868.854980,1565.769287 
	C3837.294189,1578.790405 3807.245850,1595.383301 3776.000488,1609.286499 
	C3750.766113,1620.515015 3725.570068,1631.760498 3700.718750,1643.910400 
	C3681.491943,1653.310669 3661.536133,1661.683228 3641.849365,1670.391724 
	C3631.603027,1674.924194 3622.383789,1681.910522 3612.237305,1685.526245 
	C3597.356689,1690.829102 3583.656982,1698.553711 3568.833740,1703.812012 
	C3546.605469,1711.697021 3526.853271,1725.157104 3504.370361,1732.731934 
	C3493.937256,1736.246826 3484.358643,1742.240112 3474.265137,1746.829102 
	C3429.448975,1767.204346 3384.574707,1787.451416 3339.758301,1807.826416 
	C3334.983887,1809.997192 3330.696045,1813.496948 3325.762695,1815.014404 
	C3307.619141,1820.594360 3290.692627,1829.353760 3273.800537,1837.385498 
	C3238.318604,1854.255859 3203.037109,1871.521484 3166.793701,1886.713989 
	C3137.864990,1898.840332 3110.248779,1913.796997 3081.203613,1925.694824 
	C3063.631104,1932.893188 3046.811523,1941.924072 3029.270508,1949.208008 
	C3011.740479,1956.487427 2995.563721,1966.500854 2977.590820,1972.980469 
	C2962.171387,1978.539429 2947.796387,1986.927246 2932.604736,1993.206055 
	C2917.482910,1999.456055 2904.251953,2010.020020 2887.655518,2012.839233 
	C2874.440674,2022.905640 2858.199707,2026.875366 2843.788330,2034.569580 
	C2831.699707,2041.023682 2819.663574,2048.417236 2806.670410,2052.102295 
	C2793.335205,2055.884277 2782.487793,2064.230225 2769.304932,2068.249512 
	C2755.027100,2072.602783 2741.642334,2080.157227 2728.243652,2087.045654 
	C2714.922363,2093.894531 2700.336182,2098.293457 2688.246338,2107.531738 
	C2670.117432,2111.333740 2654.302490,2120.917725 2637.602783,2128.196777 
	C2624.398193,2133.952393 2612.496094,2142.966064 2599.035400,2147.804688 
	C2575.043457,2156.428711 2552.294434,2167.815430 2528.691406,2177.257080 
	C2512.929199,2183.562500 2498.570312,2193.046387 2482.827393,2199.582275 
	C2471.914307,2204.112793 2460.936035,2208.518066 2450.211426,2213.465576 
	C2423.959473,2225.575928 2398.358154,2239.291016 2371.510742,2249.859863 
	C2346.668457,2259.639648 2322.871338,2271.652344 2298.072998,2281.478271 
	C2277.949707,2289.451660 2257.985352,2297.999023 2239.455078,2309.674316 
	C2230.770752,2315.145996 2220.396484,2317.934814 2209.576904,2321.854736 
	C2208.286377,2322.462402 2207.690430,2323.396484 2204.957764,2325.078125 
	C2194.321777,2330.184326 2182.567383,2333.819580 2173.367920,2340.814941 
	C2164.354736,2347.668701 2154.599365,2350.296631 2144.373779,2352.106689 
	C2126.124512,2355.337646 2107.704834,2357.609131 2089.348633,2360.227539 
	C2068.367188,2363.220215 2048.074463,2369.090088 2027.970581,2375.486572 
	C2004.016602,2383.108398 1980.375732,2391.685059 1955.881348,2397.586426 
	C1945.608032,2400.061523 1935.389038,2402.995850 1925.444092,2406.555664 
	C1898.607910,2416.162354 1871.828003,2425.947021 1845.225952,2436.181641 
	C1824.246338,2444.252686 1802.688477,2451.452393 1782.943970,2461.963379 
	C1748.668579,2480.209229 1711.854370,2491.343262 1675.471558,2503.646240 
	C1649.811523,2512.323242 1623.326294,2518.555664 1597.224976,2525.934326 
	C1588.318848,2528.451904 1579.531128,2531.418945 1570.563965,2533.683838 
	C1551.513428,2538.494873 1532.526855,2543.380127 1515.509155,2553.737549 
	C1514.950317,2554.077881 1514.281128,2554.381592 1513.643799,2554.427002 
	C1490.208130,2556.090576 1474.194092,2575.683838 1451.860840,2580.042725 
	C1450.665649,2580.276123 1449.684692,2581.529785 1448.567749,2582.252441 
	C1422.515625,2599.100586 1393.735474,2611.627686 1369.877930,2631.978760 
	C1367.925171,2633.644043 1365.250732,2634.763672 1362.725830,2635.403564 
	C1354.382690,2637.517334 1349.427612,2643.550781 1344.259277,2649.794922 
	C1339.942261,2655.010254 1336.054932,2659.735596 1336.140137,2667.195312 
	C1336.219116,2674.120361 1338.145996,2679.384521 1342.066650,2685.302734 
	C1346.423096,2691.878662 1350.732788,2696.250732 1358.497314,2698.026855 
	C1366.208130,2699.790771 1373.623779,2702.844727 1381.416870,2705.414551 
	C1373.632324,2719.918701 1363.434448,2732.505615 1349.411499,2741.775146 
	C1348.302124,2742.508301 1347.083740,2743.144531 1346.149414,2744.063232 
	C1340.579102,2749.541260 1333.641357,2753.965576 1334.378418,2763.627930 
	C1334.576782,2766.228516 1331.680542,2769.401611 1329.581787,2771.756104 
	C1326.950928,2774.707764 1323.677734,2777.086914 1321.685913,2778.832764 
	C1319.672485,2785.650391 1318.802368,2791.657715 1316.208740,2796.794678 
	C1308.941528,2811.188477 1309.140991,2813.273193 1321.737793,2824.928223 
	C1322.995728,2826.092041 1323.406128,2828.172119 1324.303467,2830.019775 
	C1320.082642,2831.211670 1316.341553,2832.268066 1312.255249,2833.421875 
	C1316.045898,2848.068848 1327.879517,2847.907227 1340.772583,2848.390625 
	C1337.883301,2851.547607 1336.569336,2854.333252 1334.614380,2854.896973 
	C1323.235107,2858.178955 1311.829712,2861.659668 1300.190430,2863.665039 
	C1289.433960,2865.518555 1280.048584,2869.651611 1269.468872,2875.593506 
	C1269.468872,2875.593506 1267.993652,2876.747803 1264.768066,2876.750000 
	C1259.487549,2879.320557 1253.898193,2881.417236 1249.016113,2884.599121 
	C1244.437866,2887.583740 1245.737427,2890.931396 1248.609741,2892.979736 
	C1246.606689,2894.681396 1244.603516,2896.383057 1243.292847,2894.357422 
	C1240.107178,2888.823975 1234.841431,2890.121826 1231.136230,2892.215332 
	C1205.264404,2906.836670 1179.005859,2920.868408 1156.776001,2941.133057 
	C1136.685669,2959.447021 1118.716064,2979.725830 1101.987793,3000.986084 
	C1091.892944,3013.816162 1083.559448,3028.141602 1075.411987,3042.355225 
	C1070.242432,3051.374023 1067.466553,3061.742432 1062.544067,3070.930420 
	C1055.745605,3083.619873 1046.704590,3095.268555 1047.638062,3110.853271 
	C1047.740723,3112.568115 1046.518677,3114.729004 1045.268799,3116.095215 
	C1039.764771,3122.111572 1040.038208,3129.472656 1039.998169,3136.798096 
	C1039.965576,3142.756592 1040.416504,3148.555420 1035.410522,3153.492676 
	C1033.421143,3155.454590 1033.118042,3159.594238 1032.914062,3162.797607 
	C1032.533691,3168.772217 1032.778564,3174.787598 1032.778564,3180.785889 
	C1032.777100,4295.822754 1032.776978,5410.859375 1032.776611,6525.895996 
	C1032.776611,6531.228027 1032.835205,6536.560547 1032.753418,6541.891113 
	C1032.702515,6545.214844 1033.474121,6549.065430 1032.090942,6551.764648 
	C1026.273438,6563.118164 1028.203491,6575.184082 1028.038940,6587.026367 
	C1027.798096,6604.351562 1027.908936,6621.683594 1028.022827,6639.011230 
	C1028.053223,6643.638672 1027.272095,6648.988770 1029.259644,6652.735840 
	C1033.312134,6660.375488 1032.683228,6668.202148 1032.747681,6676.120117 
	C1032.850952,6688.782715 1032.711304,6701.447266 1032.816772,6714.109375 
	C1032.849854,6718.082031 1031.854004,6723.209961 1033.886108,6725.814453 
	C1041.719604,6735.854980 1039.476440,6747.303223 1040.121948,6758.411133 
	C1040.236572,6760.384766 1040.208740,6762.665527 1041.168701,6764.243164 
	C1048.393311,6776.116211 1049.923340,6790.418457 1058.044678,6802.032715 
	C1064.011719,6810.565430 1069.679810,6819.773926 1073.103149,6829.517090 
	C1079.365723,6847.340820 1090.463745,6862.155762 1101.069580,6877.067871 
	C1127.587402,6914.352539 1162.240356,6943.131836 1200.265503,6968.139160 
	C1213.546631,6976.874023 1228.477905,6982.245605 1242.194458,6989.712402 
	C1264.414062,7001.807129 1288.243530,7007.615234 1314.729126,7014.854980 
	C1316.539307,7014.718262 1318.349365,7014.581543 1322.799805,7015.616699 
	C1327.034912,7016.594238 1331.246704,7017.691406 1335.511597,7018.514648 
	C1339.685303,7019.319336 1343.913208,7019.843750 1351.786377,7021.241211 
	C1374.450684,7021.256836 1397.115112,7021.286621 1419.779419,7021.286621 
	C3023.013184,7021.287598 4626.246582,7021.283691 6229.480469,7021.290039 
	C6334.807129,7021.290527 6440.133301,7021.366211 6547.862305,7023.535156 
	C6565.776855,7027.080078 6583.875488,7027.587402 6602.014648,7026.340332 
	C6605.696289,7026.086914 6609.262207,7024.152344 6616.423828,7022.268066 
	C6633.576660,7021.673340 6650.729492,7021.078613 6669.937500,7021.437500 
	C6675.043457,7020.473145 6680.867676,7021.773926 6687.551270,7016.498047 
z"/>
<path fill="#33C5F3" opacity="1.000000" stroke="none" 
	d="
M1242.600464,2898.084717 
	C1244.603516,2896.383057 1246.606689,2894.681396 1251.026733,2893.528809 
	C1258.427124,2892.267578 1263.410400,2890.457275 1269.957764,2888.640137 
	C1283.940552,2885.164307 1296.547241,2882.225342 1309.381592,2875.641602 
	C1313.722656,2874.712646 1316.570190,2873.862793 1320.518066,2873.452393 
	C1323.667358,2872.979980 1325.716309,2872.068115 1329.089111,2871.148926 
	C1332.107422,2870.679443 1333.802002,2870.217285 1336.762085,2870.200684 
	C1341.298584,2869.659912 1344.569458,2868.674072 1349.558960,2867.673828 
	C1358.024048,2866.747559 1364.770630,2865.835449 1373.327881,2865.547852 
	C1389.127441,2866.306396 1403.116211,2866.557373 1417.104858,2866.557617 
	C2995.557861,2866.575684 4574.010742,2866.574707 6152.463867,2866.576904 
	C6308.442871,2866.577148 6464.421387,2866.615723 6620.400391,2866.510254 
	C6626.937012,2866.505859 6633.473145,2865.214355 6641.554688,2864.779785 
	C6651.458008,2865.898193 6659.815918,2866.758789 6669.036621,2868.377197 
	C6672.077148,2869.019043 6674.255371,2868.903320 6677.904297,2869.425293 
	C6683.599609,2870.624268 6687.825195,2871.185059 6692.921875,2872.162598 
	C6693.792969,2872.579346 6695.722656,2872.513428 6696.838867,2873.179688 
	C6701.351074,2874.438232 6704.747559,2875.030273 6708.942871,2876.470947 
	C6711.956055,2877.570557 6714.170898,2877.821533 6717.680664,2878.634277 
	C6722.637207,2880.071289 6726.297852,2880.946777 6730.752930,2882.719727 
	C6734.502930,2884.365479 6737.458984,2885.114014 6741.512695,2886.435547 
	C6743.410645,2887.210693 6744.210449,2887.413330 6745.208984,2888.222656 
	C6745.407227,2888.829102 6746.552246,2889.369873 6746.552246,2889.369873 
	C6746.552246,2889.369873 6747.624023,2888.696045 6748.951660,2889.466797 
	C6754.199219,2891.385986 6758.119629,2892.534424 6762.778809,2894.490723 
	C6764.878418,2895.773926 6766.238770,2896.249512 6768.533203,2897.575928 
	C6773.292480,2900.170898 6777.118164,2901.914795 6781.163086,2904.303711 
	C6781.381836,2904.948730 6782.562012,2905.611328 6782.562012,2905.611328 
	C6782.562012,2905.611328 6783.833008,2905.145020 6785.053711,2905.906738 
	C6787.170410,2907.010498 6788.066895,2907.352295 6789.177734,2908.375977 
	C6789.393066,2909.058105 6790.579590,2909.843994 6790.579590,2909.843994 
	C6790.579590,2909.843994 6791.980957,2909.593750 6793.220703,2910.466064 
	C6797.104004,2912.821533 6799.747559,2914.304688 6802.255371,2916.257324 
	C6802.119629,2916.726807 6803.571777,2916.434082 6804.713379,2917.314941 
	C6807.592773,2919.004395 6809.330078,2919.812988 6811.574219,2921.733154 
	C6814.861816,2924.231201 6817.643555,2925.617432 6820.517578,2927.221924 
	C6820.610840,2927.440186 6821.085449,2927.428711 6821.571289,2928.534180 
	C6825.416992,2931.588623 6828.776855,2933.538086 6832.682617,2935.959229 
	C6833.228516,2936.431152 6834.604492,2936.865723 6835.189453,2937.789062 
	C6837.038086,2939.388184 6838.302734,2940.063721 6840.121094,2941.501465 
	C6840.674805,2942.263184 6842.220215,2943.340332 6842.479492,2944.467773 
	C6845.870117,2947.622803 6849.000977,2949.650146 6852.927734,2952.740234 
	C6866.467773,2966.554443 6879.212891,2979.305420 6892.181641,2993.257568 
	C6894.718262,2996.632812 6897.030273,2998.806885 6899.963867,3002.229492 
	C6902.852051,3006.418945 6905.118652,3009.360352 6907.026367,3012.677490 
	C6906.667480,3013.053467 6907.242188,3013.911133 6907.242188,3013.911133 
	C6907.242188,3013.911133 6908.240723,3013.635254 6908.993164,3014.888672 
	C6938.175781,3057.168213 6957.657227,3102.023682 6967.670410,3150.976807 
	C6968.580566,3155.429688 6970.512695,3159.673828 6971.792969,3165.690430 
	C6972.405273,3172.890381 6973.194336,3178.414795 6973.600586,3185.467285 
	C6974.201172,3193.981201 6975.185547,3200.966797 6975.852539,3209.807617 
	C6975.471680,3216.986572 6975.352539,3222.309814 6975.352539,3227.633301 
	C6975.334961,3597.024902 6975.323730,3966.416504 6975.342773,4335.808105 
	C6975.343262,4342.455566 6975.712402,4349.102539 6974.340820,4356.326172 
	C6962.205566,4357.657227 6951.638672,4359.068359 6941.071289,4359.071289 
	C6541.087402,4359.188477 6141.103516,4359.324219 5741.119629,4358.991211 
	C5691.582031,4358.949707 5646.216309,4371.291992 5604.842285,4398.091309 
	C5585.883789,4410.370605 5567.235840,4423.332520 5555.250000,4443.379883 
	C5555.503418,4443.565430 5555.189941,4443.020508 5553.941406,4443.458984 
	C5546.179688,4451.289551 5538.914551,4458.150879 5534.694336,4468.556152 
	C5531.783691,4472.808105 5529.932617,4476.411621 5526.930664,4480.741211 
	C5512.199219,4502.188477 5503.739746,4525.063477 5498.568359,4549.080566 
	C5495.536133,4563.163574 5490.878906,4577.237305 5493.274414,4593.878906 
	C5492.674805,4601.685059 5492.345215,4607.665527 5492.344727,4613.645996 
	C5492.312988,4831.801270 5492.296387,5049.956543 5492.369629,5268.111816 
	C5492.372070,5276.049805 5493.299316,5283.988281 5493.394531,5293.561523 
	C5494.846680,5326.667969 5503.748535,5356.313965 5517.582520,5384.367676 
	C5522.441406,5394.221680 5526.549805,5405.061523 5535.932617,5412.100586 
	C5536.000000,5412.000488 5535.791992,5412.119629 5536.037109,5413.480469 
	C5555.504883,5445.217285 5581.762695,5468.313477 5612.219727,5486.662598 
	C5624.597168,5494.118652 5637.094238,5502.059082 5652.958984,5504.849121 
	C5656.241699,5506.319824 5658.566406,5507.021484 5661.069824,5508.282227 
	C5661.248535,5508.840820 5662.322266,5509.283691 5662.322266,5509.283691 
	C5662.322266,5509.283691 5663.205566,5508.529297 5664.736816,5509.344727 
	C5677.506348,5512.327637 5688.745117,5514.495117 5701.362793,5517.397461 
	C5711.175293,5518.600586 5719.608398,5519.068359 5729.879395,5519.925781 
	C5739.045898,5520.414062 5746.375000,5520.600098 5753.703613,5520.600098 
	C6145.579590,5520.614258 6537.456055,5520.614746 6929.332031,5520.600098 
	C6943.324707,5520.599609 6957.316895,5520.425781 6971.898438,5522.112305 
	C6972.886719,5530.515137 6973.634766,5537.139160 6973.634277,5543.763184 
	C6973.610352,5921.315918 6973.520020,6298.868164 6973.492676,6676.420898 
	C6973.492188,6680.361816 6974.238770,6684.302734 6974.067383,6689.858398 
	C6973.035645,6698.318848 6972.572266,6705.164551 6971.366211,6712.874512 
	C6970.619629,6715.922852 6970.615723,6718.107422 6969.956055,6721.669922 
	C6968.944336,6726.059570 6968.589355,6729.070801 6967.480469,6732.905273 
	C6966.563965,6735.865723 6966.400879,6738.002441 6965.569336,6741.519531 
	C6964.511230,6745.926270 6964.121094,6748.951660 6963.254883,6752.798340 
	C6962.777832,6753.619141 6962.641113,6755.513184 6961.914062,6756.406738 
	C6960.809082,6759.539551 6960.431641,6761.778320 6959.148926,6764.960938 
	C6957.514648,6769.264160 6956.786621,6772.623047 6955.279297,6777.190430 
	C6948.405762,6792.843750 6942.311035,6807.289062 6935.752930,6821.695312 
	C6935.290039,6821.657227 6935.434082,6823.052246 6934.488770,6824.198242 
	C6930.063965,6832.218750 6926.584473,6839.093750 6922.024414,6846.667480 
	C6919.351562,6850.262695 6917.759277,6853.159668 6915.124023,6856.890137 
	C6898.547852,6876.760742 6883.014160,6895.797852 6866.243164,6915.299805 
	C6861.433594,6919.602539 6857.860840,6923.439941 6853.073242,6927.754883 
	C6837.525391,6940.488770 6822.246094,6951.436035 6806.233887,6961.391602 
	C6801.291992,6964.464844 6796.570312,6967.892578 6790.511719,6971.311035 
	C6787.294922,6972.870117 6785.313477,6974.275391 6782.081055,6975.873047 
	C6776.486328,6978.518555 6772.142578,6980.971680 6766.566406,6983.702637 
	C6764.105469,6985.091797 6762.876953,6986.204102 6761.254883,6986.988281 
	C6760.861816,6986.660156 6760.008301,6987.227051 6758.952148,6987.265625 
	C6757.239258,6987.558105 6756.582520,6987.812012 6754.594727,6988.041504 
	C6750.234375,6989.571777 6747.204590,6991.125977 6742.808594,6992.907715 
	C6739.809570,6993.979492 6738.177246,6994.824707 6735.600098,6995.366699 
	C6733.083984,6996.171875 6731.511719,6997.279785 6729.178711,6998.457031 
	C6728.417969,6998.526855 6727.072754,6999.251465 6726.002441,6998.940430 
	C6719.322266,7000.421875 6713.712402,7002.215332 6706.700195,7004.030273 
	C6700.851074,7005.363770 6696.403320,7006.676270 6690.877930,7007.840332 
	C6687.780762,7008.362305 6685.760742,7009.032227 6682.335938,7009.821289 
	C6679.104980,7010.378906 6677.278809,7010.817871 6674.697754,7010.937500 
	C6671.970215,7011.089844 6669.996582,7011.560547 6666.224609,7012.027344 
	C6646.930664,7013.240234 6629.436523,7014.457031 6610.213867,7015.393066 
	C6600.336426,7015.303223 6592.187012,7015.495117 6582.533203,7015.503906 
	C6578.006836,7015.442871 6574.984375,7015.565430 6570.324219,7015.403320 
	C6563.170898,7015.312500 6557.654785,7015.505859 6550.263184,7015.505371 
	C6541.056641,7015.273926 6533.725586,7015.202637 6526.394531,7015.202637 
	C4856.865234,7015.201660 3187.335449,7015.216797 1517.806030,7015.162598 
	C1461.190063,7015.160645 1404.528809,7016.801758 1347.075439,7011.318359 
	C1337.607422,7009.397949 1329.065063,7008.064941 1319.206543,7006.049805 
	C1315.942505,7005.130371 1313.994629,7004.892578 1310.761475,7003.913086 
	C1290.084961,6996.118164 1270.134766,6990.294922 1251.410034,6981.777344 
	C1199.643311,6958.230957 1155.893188,6924.067383 1120.451904,6879.352539 
	C1097.487183,6850.378418 1079.021362,6818.691406 1066.303589,6784.194336 
	C1051.014404,6742.722656 1043.314331,6699.756348 1043.324219,6655.086914 
	C1043.577148,5510.720215 1043.484497,4366.353516 1043.634033,3221.987061 
	C1043.636353,3204.736816 1044.936890,3187.347412 1047.329102,3170.260742 
	C1057.924927,3094.575928 1091.330933,3029.853027 1143.301514,2974.352539 
	C1169.062134,2946.842041 1200.116333,2926.214355 1231.889404,2906.520264 
	C1235.727905,2904.141113 1239.042847,2900.917236 1242.600464,2898.084717 
z"/>
<path fill="#FDFDFD" opacity="1.000000" stroke="none" 
	d="
M1335.496460,2869.755127 
	C1333.802002,2870.217285 1332.107422,2870.679443 1328.471924,2870.499023 
	C1322.899048,2868.067627 1320.996460,2870.175537 1319.417603,2873.012939 
	C1316.570190,2873.862793 1313.722656,2874.712646 1308.401123,2874.842041 
	C1300.422607,2875.309570 1294.635742,2875.793945 1289.483765,2877.860596 
	C1282.756958,2880.559326 1277.079590,2879.154297 1271.325806,2875.839844 
	C1280.048584,2869.651611 1289.433960,2865.518555 1300.190430,2863.665039 
	C1311.829712,2861.659668 1323.235107,2858.178955 1334.614380,2854.896973 
	C1336.569336,2854.333252 1337.883301,2851.547607 1340.772583,2848.390625 
	C1327.879517,2847.907227 1316.045898,2848.068848 1312.255249,2833.421875 
	C1316.341553,2832.268066 1320.082642,2831.211670 1324.303467,2830.019775 
	C1323.406128,2828.172119 1322.995728,2826.092041 1321.737793,2824.928223 
	C1309.140991,2813.273193 1308.941528,2811.188477 1316.208740,2796.794678 
	C1318.802368,2791.657715 1319.672485,2785.650391 1321.685913,2778.832764 
	C1323.677734,2777.086914 1326.950928,2774.707764 1329.581787,2771.756104 
	C1331.680542,2769.401611 1334.576782,2766.228516 1334.378418,2763.627930 
	C1333.641357,2753.965576 1340.579102,2749.541260 1346.149414,2744.063232 
	C1347.083740,2743.144531 1348.302124,2742.508301 1349.411499,2741.775146 
	C1363.434448,2732.505615 1373.632324,2719.918701 1381.416870,2705.414551 
	C1373.623779,2702.844727 1366.208130,2699.790771 1358.497314,2698.026855 
	C1350.732788,2696.250732 1346.423096,2691.878662 1342.066650,2685.302734 
	C1338.145996,2679.384521 1336.219116,2674.120361 1336.140137,2667.195312 
	C1336.054932,2659.735596 1339.942261,2655.010254 1344.259277,2649.794922 
	C1349.427612,2643.550781 1354.382690,2637.517334 1362.725830,2635.403564 
	C1365.250732,2634.763672 1367.925171,2633.644043 1369.877930,2631.978760 
	C1393.735474,2611.627686 1422.515625,2599.100586 1448.567749,2582.252441 
	C1449.684692,2581.529785 1450.665649,2580.276123 1451.860840,2580.042725 
	C1474.194092,2575.683838 1490.208130,2556.090576 1513.643799,2554.427002 
	C1514.281128,2554.381592 1514.950317,2554.077881 1515.509155,2553.737549 
	C1532.526855,2543.380127 1551.513428,2538.494873 1570.563965,2533.683838 
	C1579.531128,2531.418945 1588.318848,2528.451904 1597.224976,2525.934326 
	C1623.326294,2518.555664 1649.811523,2512.323242 1675.471558,2503.646240 
	C1711.854370,2491.343262 1748.668579,2480.209229 1782.943970,2461.963379 
	C1802.688477,2451.452393 1824.246338,2444.252686 1845.225952,2436.181641 
	C1871.828003,2425.947021 1898.607910,2416.162354 1925.444092,2406.555664 
	C1935.389038,2402.995850 1945.608032,2400.061523 1955.881348,2397.586426 
	C1980.375732,2391.685059 2004.016602,2383.108398 2027.970581,2375.486572 
	C2048.074463,2369.090088 2068.367188,2363.220215 2089.348633,2360.227539 
	C2107.704834,2357.609131 2126.124512,2355.337646 2144.373779,2352.106689 
	C2154.599365,2350.296631 2164.354736,2347.668701 2173.367920,2340.814941 
	C2182.567383,2333.819580 2194.321777,2330.184326 2206.548340,2326.330078 
	C2209.076172,2331.311768 2207.662842,2333.925537 2204.427979,2335.837646 
	C2199.494873,2338.753662 2194.629639,2341.784180 2187.009766,2346.426758 
	C2199.739258,2349.703125 2207.783203,2347.626221 2215.145264,2341.152588 
	C2215.332520,2341.135742 2215.407471,2341.097412 2217.270996,2340.920410 
	C2223.038330,2339.895996 2226.966797,2339.149414 2230.841553,2338.186523 
	C2378.179199,2301.571533 2525.501709,2264.895020 2672.847656,2228.314453 
	C2888.046387,2174.887939 3103.257080,2121.510498 3318.470947,2068.144775 
	C3524.632568,2017.023560 3730.817627,1965.994995 3936.968750,1914.830566 
	C4128.256348,1867.354858 4319.504883,1819.721191 4510.785645,1772.215942 
	C4772.507324,1707.216675 5034.235352,1642.244019 5295.979980,1577.336182 
	C5336.034668,1567.403320 5376.190430,1557.878052 5416.913086,1548.441162 
	C5418.548340,1548.776001 5419.283691,1548.344604 5421.164551,1546.729370 
	C5440.082031,1541.377197 5457.565918,1536.719727 5475.688965,1531.549683 
	C5476.921387,1529.932495 5476.809570,1528.904907 5475.560547,1526.430908 
	C5470.265137,1496.596313 5465.400391,1468.285156 5461.437500,1439.425171 
	C5464.189453,1436.804565 5466.040039,1434.732910 5467.890137,1432.661377 
	C5469.995117,1433.791382 5473.466797,1434.527100 5473.929688,1436.130615 
	C5474.997070,1439.833984 5474.785645,1443.958984 5474.770020,1447.911621 
	C5474.729980,1457.805908 5474.893555,1467.199097 5480.178711,1476.559692 
	C5483.497070,1482.436768 5483.081055,1490.631592 5483.574219,1497.839111 
	C5484.115723,1505.755737 5482.495117,1514.008057 5484.126953,1521.618774 
	C5486.570312,1533.014526 5482.181152,1540.526245 5471.358398,1547.415039 
	C5466.208496,1548.121338 5463.512695,1548.105347 5461.088379,1548.908813 
	C5458.806641,1549.665039 5455.349121,1547.216064 5453.453613,1551.560181 
	C5459.959473,1551.560181 5465.701660,1551.560181 5471.444336,1551.560181 
	C5480.354980,1551.807983 5488.532227,1553.518555 5493.369141,1563.515015 
	C5492.481934,1565.003174 5491.186523,1567.176270 5489.243652,1570.435547 
	C5490.837402,1572.145752 5492.738770,1574.772339 5495.193359,1576.690430 
	C5499.511719,1580.065063 5503.034668,1583.347778 5503.017578,1589.622070 
	C5502.990234,1599.894653 5510.591797,1604.187744 5518.767090,1607.630859 
	C5521.737793,1608.882568 5524.702148,1610.235596 5527.791992,1611.105103 
	C5538.382324,1614.084473 5545.593262,1620.411621 5548.663574,1632.784546 
	C5546.329590,1633.839233 5543.348633,1634.792236 5540.833496,1636.450439 
	C5538.910645,1637.718018 5536.462891,1639.737549 5536.219238,1641.671143 
	C5535.756836,1645.338379 5538.228516,1647.623657 5542.152832,1648.096191 
	C5544.660156,1648.397949 5547.121094,1649.077393 5549.846191,1649.637451 
	C5544.378418,1658.526367 5536.968750,1665.655762 5523.007324,1675.296021 
	C5519.048340,1676.877075 5516.810059,1677.219604 5514.572266,1677.562134 
	C5514.662109,1678.295166 5514.751953,1679.028320 5514.841797,1679.761353 
	C5517.846680,1679.424194 5520.852051,1679.087036 5523.856934,1678.749878 
	C5528.474609,1678.657471 5533.748535,1679.975464 5537.579590,1678.192627 
	C5546.854004,1673.876587 5556.157227,1671.592285 5566.357910,1672.133057 
	C5568.771484,1672.260986 5571.473145,1670.983032 5573.705078,1669.744751 
	C5580.276855,1666.100098 5587.285645,1664.913940 5594.695801,1664.132812 
	C5601.769531,1663.387085 5608.576660,1660.222534 5615.652344,1659.351685 
	C5622.922852,1658.456909 5630.285156,1658.701172 5636.377930,1653.743530 
	C5649.115234,1653.561646 5659.759766,1644.765869 5672.698242,1645.000854 
	C5675.733887,1645.056030 5678.779785,1642.865967 5681.872559,1641.869507 
	C5686.888184,1640.253418 5691.872559,1637.873535 5697.005859,1637.445435 
	C5704.298828,1636.837158 5711.292969,1636.879395 5717.982422,1632.712769 
	C5720.951660,1630.863281 5725.751465,1632.021484 5729.706543,1631.665527 
	C5732.981934,1631.370605 5737.299316,1632.031372 5739.301758,1630.220093 
	C5745.310059,1624.786011 5753.378906,1626.199463 5759.467285,1623.236816 
	C5774.771973,1615.789307 5792.459961,1620.288940 5807.353027,1612.036499 
	C5810.026855,1610.554810 5813.859375,1610.880981 5817.160156,1610.859253 
	C5833.148926,1610.754272 5849.141602,1610.655518 5865.127441,1610.917969 
	C5869.720703,1610.993408 5874.959961,1611.119141 5878.726074,1613.276489 
	C5884.904297,1616.815796 5891.423828,1616.223022 5897.772461,1617.595337 
	C5907.992188,1619.804199 5918.117676,1623.160400 5927.717773,1627.331909 
	C5937.848633,1631.733643 5946.919922,1638.664185 5957.157715,1642.710815 
	C5979.265625,1651.449829 5995.208008,1668.283569 6012.909668,1682.882935 
	C6035.158691,1701.233276 6049.685547,1725.246338 6062.991211,1750.264038 
	C6066.408691,1756.689575 6070.863281,1762.499756 6069.222656,1770.380127 
	C6069.089844,1771.017944 6069.013184,1771.789429 6069.245605,1772.362671 
	C6071.859863,1778.799927 6075.467773,1785.005493 6076.944824,1791.685547 
	C6078.457520,1798.527222 6075.989258,1805.890015 6083.125977,1811.650879 
	C6085.991211,1813.963867 6086.206543,1820.190308 6086.639648,1824.729858 
	C6087.207031,1830.672852 6086.804688,1836.709106 6086.804688,1842.705322 
	C6086.806641,2121.195557 6086.792480,2399.685547 6086.883789,2678.175781 
	C6086.886230,2685.991943 6085.323242,2694.083008 6088.545898,2701.360840 
	C6094.551758,2703.857666 6099.502441,2702.605957 6104.294434,2699.890869 
	C6118.923340,2691.603027 6133.377441,2694.139648 6148.039062,2700.112793 
	C6155.965332,2703.341797 6163.300781,2707.142334 6170.567871,2711.830566 
	C6179.029297,2717.289062 6188.229492,2722.714111 6199.180176,2722.866455 
	C6205.150391,2722.949463 6211.109375,2723.808594 6217.074707,2724.304443 
	C6219.063477,2724.469971 6221.331543,2724.023193 6223.000000,2724.831299 
	C6231.709961,2729.050537 6238.501953,2736.041992 6249.785645,2736.405029 
	C6258.306152,2736.679199 6266.646973,2742.840820 6275.048340,2746.426270 
	C6279.267578,2748.227051 6283.639648,2749.787354 6287.592285,2752.064697 
	C6292.632324,2754.969482 6298.292969,2757.271973 6299.792969,2764.149414 
	C6301.606934,2772.470703 6308.017090,2775.606201 6315.751465,2776.222900 
	C6321.048340,2776.645752 6326.417480,2776.114258 6331.729980,2776.424316 
	C6335.685547,2776.655273 6340.908691,2776.164307 6343.293945,2778.409668 
	C6350.599609,2785.288574 6359.163086,2783.934570 6367.685059,2784.457520 
	C6371.500000,2784.691895 6375.287109,2786.087646 6378.985840,2787.271484 
	C6381.465820,2788.065186 6383.942871,2790.619385 6386.121582,2790.305908 
	C6396.234863,2788.850586 6403.744629,2794.466309 6411.893555,2798.615479 
	C6414.101562,2799.739502 6416.727539,2800.041992 6419.023438,2800.683105 
	C6418.520020,2805.083984 6413.570801,2807.272949 6416.494629,2811.870361 
	C6418.417969,2814.893311 6419.299316,2818.578857 6420.913086,2822.635742 
	C6415.480469,2824.694092 6411.330078,2826.266602 6407.132324,2827.857178 
	C6407.646484,2829.641602 6407.663574,2830.989014 6408.330566,2831.807861 
	C6413.057129,2837.611328 6419.301270,2840.928955 6427.747559,2840.469238 
	C6420.362793,2852.878662 6408.910156,2844.126221 6400.060059,2850.307129 
	C6406.599609,2851.745605 6412.150879,2852.966797 6417.624023,2856.303711 
	C6405.646484,2859.054932 6393.748535,2860.247070 6381.850098,2860.247559 
	C4723.921875,2860.327148 3065.993896,2860.319580 1408.065796,2860.318848 
	C1399.399536,2860.318848 1390.733398,2860.347412 1382.067139,2860.373779 
	C1377.907349,2860.386475 1374.140991,2861.336914 1371.517090,2864.923340 
	C1364.770630,2865.835449 1358.024048,2866.747559 1348.780396,2866.873291 
	C1341.386963,2863.484863 1337.860229,2864.910156 1335.496460,2869.755127 
M5988.641602,1677.206543 
	C5926.033691,1627.414795 5855.859375,1611.845825 5778.176758,1631.031860 
	C5642.354004,1664.577271 5506.564941,1698.257690 5370.772461,1731.925903 
	C5154.174805,1785.628784 4937.583496,1839.355225 4720.995117,1893.095215 
	C4522.508301,1942.343872 4324.028320,1991.620850 4125.546875,2040.890625 
	C3803.564209,2120.817627 3481.579102,2200.735352 3159.601562,2280.683350 
	C2932.028564,2337.190918 2704.474121,2393.772461 2476.897461,2450.265869 
	C2237.676025,2509.649902 1998.435059,2568.955078 1759.209839,2628.323486 
	C1674.510498,2649.343506 1589.835815,2670.462891 1505.137207,2691.485840 
	C1498.925171,2693.027588 1492.505371,2693.905762 1483.856689,2700.317139 
	C1501.533569,2700.317139 1515.327759,2700.317383 1529.121948,2700.317383 
	C3033.063477,2700.317139 4537.004883,2700.316406 6040.946289,2700.315674 
	C6047.612793,2700.315674 6054.285645,2700.485352 6060.942871,2700.232666 
	C6064.775879,2700.087158 6068.583008,2699.252197 6073.550293,2698.569824 
	C6073.718750,2690.616211 6074.000488,2683.388184 6074.004395,2676.159912 
	C6074.035645,2612.829102 6074.014648,2549.498047 6074.014648,2486.167236 
	C6074.014648,2280.175293 6074.119141,2074.183105 6073.838867,1868.191528 
	C6073.814453,1850.283569 6072.784180,1832.105225 6069.611328,1814.523682 
	C6059.778809,1760.044189 6032.817383,1715.059326 5988.641602,1677.206543 
M5503.622559,1684.370239 
	C5501.703613,1684.271240 5499.770996,1683.983398 5497.870117,1684.126831 
	C5496.009766,1684.267334 5494.183105,1684.847290 5492.341309,1685.234253 
	C5492.488770,1685.945068 5492.635742,1686.655762 5492.782715,1687.366455 
	C5497.034180,1686.870117 5501.285645,1686.373657 5503.622559,1684.370239 
M2182.148926,2349.644287 
	C2182.148926,2349.644287 2182.439941,2350.084961 2182.148926,2349.644287 
z"/>
<path fill="#FFFFFF" opacity="1.000000" stroke="none" 
	d="
M5660.891113,5507.723145 
	C5658.566406,5507.021484 5656.241699,5506.319824 5652.920410,5503.333008 
	C5651.732910,5495.271484 5649.634277,5490.707031 5643.807129,5488.665527 
	C5635.089355,5485.611328 5626.391113,5482.489746 5617.600586,5479.656738 
	C5607.112305,5476.277344 5597.530762,5472.057129 5595.910156,5459.346191 
	C5595.159180,5453.457520 5591.742188,5449.794434 5586.607910,5447.406738 
	C5579.308594,5444.012207 5571.834961,5440.204102 5567.800781,5433.208008 
	C5560.507324,5420.560547 5548.122070,5416.599121 5535.791992,5412.119629 
	C5535.791992,5412.119629 5536.000000,5412.000488 5535.950684,5410.534180 
	C5531.630371,5395.328613 5527.473145,5381.550781 5522.979492,5367.884277 
	C5522.209961,5365.543945 5520.395020,5363.134766 5518.391113,5361.687500 
	C5511.414062,5356.650391 5508.832520,5349.635254 5507.508789,5341.512207 
	C5505.195312,5327.307129 5502.566895,5313.141113 5499.513672,5299.080078 
	C5498.932617,5296.407715 5495.768555,5294.296387 5493.795898,5291.926270 
	C5493.299316,5283.988281 5492.372070,5276.049805 5492.369629,5268.111816 
	C5492.296387,5049.956543 5492.312988,4831.801270 5492.344727,4613.645996 
	C5492.345215,4607.665527 5492.674805,4601.685059 5494.585938,4593.260254 
	C5497.540527,4587.237305 5499.272461,4583.741211 5499.865723,4580.062012 
	C5500.905762,4573.603027 5500.763184,4566.938965 5502.000000,4560.531250 
	C5503.738281,4551.523438 5506.314941,4542.678223 5508.470703,4533.749023 
	C5510.096191,4527.016113 5512.682129,4521.416504 5520.527344,4519.816406 
	C5523.556641,4519.198242 5528.011230,4517.616211 5528.812012,4515.391602 
	C5532.291504,4505.724609 5536.610352,4495.867188 5533.729492,4485.234375 
	C5533.162109,4483.138672 5530.030273,4481.737305 5528.081543,4480.015625 
	C5529.932617,4476.411621 5531.783691,4472.808105 5536.105469,4468.411133 
	C5549.985352,4463.385254 5554.675293,4454.612793 5555.189941,4443.020508 
	C5555.189941,4443.020508 5555.503418,4443.565430 5556.762207,4443.471680 
	C5562.143555,4441.402832 5566.960449,4440.216797 5570.264160,4437.310547 
	C5582.136719,4426.865234 5594.459961,4416.792480 5609.404785,4411.668457 
	C5623.577148,4406.809082 5634.027344,4399.010254 5639.284668,4384.094727 
	C5650.081543,4382.134766 5660.426270,4379.982910 5670.859375,4378.421875 
	C5690.513184,4375.480469 5709.999512,4371.829102 5730.098633,4371.838379 
	C6133.313965,4372.028320 6536.528809,4371.979980 6939.744141,4371.979980 
	C6945.075684,4371.979980 6950.409668,4372.069824 6955.738770,4371.961914 
	C6970.610352,4371.661621 6970.609863,4371.629395 6975.909180,4355.750000 
	C6975.712402,4349.102539 6975.343262,4342.455566 6975.342773,4335.808105 
	C6975.323730,3966.416504 6975.334961,3597.024902 6975.352539,3227.633301 
	C6975.352539,3222.309814 6975.471680,3216.986572 6976.815918,3208.757324 
	C6978.627441,3200.858887 6979.853516,3195.801758 6979.397461,3190.900879 
	C6979.167969,3188.433838 6975.885742,3186.250732 6973.984375,3183.938965 
	C6973.194336,3178.414795 6972.405273,3172.890381 6972.863281,3165.229492 
	C6977.022461,3162.082031 6979.933105,3161.071289 6982.844238,3160.060547 
	C6984.407227,3162.859131 6986.954102,3165.534180 6987.324707,3168.482666 
	C6988.066895,3174.393311 6987.657715,3180.452881 6987.657715,3186.451172 
	C6987.664062,3570.392334 6987.669922,3954.333252 6987.634277,4338.274414 
	C6987.633301,4349.517090 6987.157227,4360.675781 6992.344727,4371.262207 
	C6994.035156,4374.711914 6994.594727,4379.010742 6994.627441,4382.930176 
	C6994.835449,4407.565918 6994.813477,4432.204590 6994.683594,4456.841309 
	C6994.666504,4460.097656 6994.578125,4464.036621 6992.852051,4466.478516 
	C6986.527344,4475.426270 6987.684082,4485.429199 6987.683105,4495.301758 
	C6987.660156,4797.921875 6987.657715,5100.541992 6987.696777,5403.162109 
	C6987.698242,5412.348633 6987.564941,5421.190430 6991.631836,5430.331055 
	C6994.967285,5437.825195 6994.435059,5447.262695 6994.669434,5455.865234 
	C6995.087402,5471.184570 6995.036621,5486.529297 6994.674805,5501.851562 
	C6994.519043,5508.452637 6994.705078,5515.828125 6991.897461,5521.429199 
	C6987.093750,5531.014648 6987.685547,5540.711426 6987.684570,5550.589355 
	C6987.661621,5932.530762 6987.683594,6314.471680 6987.532715,6696.413086 
	C6987.529785,6704.102539 6990.240723,6712.417969 6981.690430,6719.866211 
	C6977.868652,6720.161621 6976.934082,6720.080566 6975.865723,6718.843750 
	C6974.524414,6715.794922 6973.316895,6713.902344 6972.109375,6712.010254 
	C6972.572266,6705.164551 6973.035645,6698.318848 6975.268555,6689.039551 
	C6981.994629,6680.078613 6979.851074,6672.476074 6979.873535,6665.371094 
	C6980.061523,6606.138672 6979.979980,6546.904785 6979.979980,6487.671387 
	C6979.979980,6174.201172 6979.983398,5860.730469 6979.962402,5547.260254 
	C6979.961914,5540.614258 6979.910645,5533.952637 6979.457520,5527.327637 
	C6979.133301,5522.591309 6975.783691,5520.624023 6971.309570,5520.333008 
	C6957.316895,5520.425781 6943.324707,5520.599609 6929.332031,5520.600098 
	C6537.456055,5520.614746 6145.579590,5520.614258 5753.703613,5520.600098 
	C5746.375000,5520.600098 5739.045898,5520.414062 5729.772461,5518.396973 
	C5726.106934,5513.941406 5724.706543,5509.588867 5722.603027,5509.216309 
	C5716.947266,5508.216797 5710.861816,5508.229980 5705.221191,5509.295410 
	C5703.087891,5509.699219 5701.707031,5514.089355 5699.983398,5516.662598 
	C5688.745117,5514.495117 5677.506348,5512.327637 5664.385742,5509.140625 
	C5662.502930,5508.121094 5660.891113,5507.723145 5660.891113,5507.723145 
M6975.710938,5402.644531 
	C6976.001465,5401.962402 6976.145996,5401.250488 6975.414062,5396.756348 
	C6975.359375,5386.761230 6975.257324,5376.765625 6975.256836,5366.770508 
	C6975.248535,5078.889160 6975.249512,4791.008301 6975.250000,4503.126953 
	C6975.250000,4497.795898 6975.511719,4492.447266 6975.162598,4487.139160 
	C6974.916016,4483.394043 6973.841797,4479.703613 6972.911621,4474.802734 
	C6964.167969,4474.802734 6956.228027,4474.802734 6948.288086,4474.802734 
	C6605.762695,4474.805176 6263.237305,4474.806641 5920.711914,4474.810547 
	C5862.735840,4474.811523 5804.754883,4475.268555 5746.785645,4474.652832 
	C5712.087402,4474.284668 5681.003418,4483.109375 5654.087891,4505.411133 
	C5652.588867,4506.653320 5650.687988,4507.409180 5645.959473,4508.528809 
	C5638.602051,4509.903809 5636.151367,4514.759766 5636.187012,4523.715820 
	C5634.753906,4525.130859 5633.320801,4526.545898 5629.081055,4528.700684 
	C5624.738281,4530.722168 5624.434570,4534.460938 5624.428711,4541.188965 
	C5620.072266,4551.448730 5615.715332,4561.708008 5608.731934,4572.713867 
	C5601.654297,4578.768555 5602.868164,4585.250488 5608.166992,4595.658691 
	C5608.125977,4820.500000 5608.088379,5045.340820 5608.028320,5270.182129 
	C5608.026855,5276.158691 5607.776367,5282.135742 5606.196777,5289.194336 
	C5603.660645,5292.722168 5605.541992,5294.651367 5610.306152,5298.991699 
	C5610.935059,5303.311523 5611.563965,5307.630859 5609.361328,5312.658203 
	C5603.060059,5320.909180 5602.637207,5325.452148 5607.643555,5331.078613 
	C5611.492676,5335.404785 5617.887695,5339.313965 5618.680664,5344.143066 
	C5620.589355,5355.761719 5628.537109,5362.177734 5635.708984,5369.673340 
	C5640.696777,5374.887207 5646.628906,5376.554688 5655.779785,5376.008789 
	C5658.577148,5378.526855 5661.374512,5381.045410 5664.153320,5386.406738 
	C5664.574219,5389.279297 5664.247070,5393.109375 5668.197754,5393.171875 
	C5669.856445,5393.197754 5671.558594,5390.436523 5675.973145,5389.488770 
	C5679.975098,5391.781250 5683.977539,5394.073730 5688.067383,5399.189941 
	C5692.819336,5409.486816 5695.811035,5411.877930 5703.400879,5409.901855 
	C5707.738770,5408.772461 5711.729980,5406.309082 5719.629395,5404.100098 
	C5727.620117,5404.367188 5735.610840,5404.867188 5743.601562,5404.868164 
	C6146.850098,5404.903320 6550.098145,5404.901855 6953.346680,5404.839844 
	C6960.647461,5404.838867 6967.947754,5404.055176 6975.710938,5402.644531 
z"/>
<path fill="#CCE3E6" opacity="1.000000" stroke="none" 
	d="
M1242.946655,2896.221191 
	C1239.042847,2900.917236 1235.727905,2904.141113 1231.889404,2906.520264 
	C1200.116333,2926.214355 1169.062134,2946.842041 1143.301514,2974.352539 
	C1091.330933,3029.853027 1057.924927,3094.575928 1047.329102,3170.260742 
	C1044.936890,3187.347412 1043.636353,3204.736816 1043.634033,3221.987061 
	C1043.484497,4366.353516 1043.577148,5510.720215 1043.324219,6655.086914 
	C1043.314331,6699.756348 1051.014404,6742.722656 1066.303589,6784.194336 
	C1079.021362,6818.691406 1097.487183,6850.378418 1120.451904,6879.352539 
	C1155.893188,6924.067383 1199.643311,6958.230957 1251.410034,6981.777344 
	C1270.134766,6990.294922 1290.084961,6996.118164 1310.721069,7005.089844 
	C1312.012817,7009.367676 1312.059692,7011.725586 1312.106445,7014.083984 
	C1288.243530,7007.615234 1264.414062,7001.807129 1242.194458,6989.712402 
	C1228.477905,6982.245605 1213.546631,6976.874023 1200.265503,6968.139160 
	C1162.240356,6943.131836 1127.587402,6914.352539 1101.069580,6877.067871 
	C1090.463745,6862.155762 1079.365723,6847.340820 1073.103149,6829.517090 
	C1069.679810,6819.773926 1064.011719,6810.565430 1058.044678,6802.032715 
	C1049.923340,6790.418457 1048.393311,6776.116211 1041.168701,6764.243164 
	C1040.208740,6762.665527 1040.236572,6760.384766 1040.121948,6758.411133 
	C1039.476440,6747.303223 1041.719604,6735.854980 1033.886108,6725.814453 
	C1031.854004,6723.209961 1032.849854,6718.082031 1032.816772,6714.109375 
	C1032.711304,6701.447266 1032.850952,6688.782715 1032.747681,6676.120117 
	C1032.683228,6668.202148 1033.312134,6660.375488 1029.259644,6652.735840 
	C1027.272095,6648.988770 1028.053223,6643.638672 1028.022827,6639.011230 
	C1027.908936,6621.683594 1027.798096,6604.351562 1028.038940,6587.026367 
	C1028.203491,6575.184082 1026.273438,6563.118164 1032.090942,6551.764648 
	C1033.474121,6549.065430 1032.702515,6545.214844 1032.753418,6541.891113 
	C1032.835205,6536.560547 1032.776611,6531.228027 1032.776611,6525.895996 
	C1032.776978,5410.859375 1032.777100,4295.822754 1032.778564,3180.785889 
	C1032.778564,3174.787598 1032.533691,3168.772217 1032.914062,3162.797607 
	C1033.118042,3159.594238 1033.421143,3155.454590 1035.410522,3153.492676 
	C1040.416504,3148.555420 1039.965576,3142.756592 1039.998169,3136.798096 
	C1040.038208,3129.472656 1039.764771,3122.111572 1045.268799,3116.095215 
	C1046.518677,3114.729004 1047.740723,3112.568115 1047.638062,3110.853271 
	C1046.704590,3095.268555 1055.745605,3083.619873 1062.544067,3070.930420 
	C1067.466553,3061.742432 1070.242432,3051.374023 1075.411987,3042.355225 
	C1083.559448,3028.141602 1091.892944,3013.816162 1101.987793,3000.986084 
	C1118.716064,2979.725830 1136.685669,2959.447021 1156.776001,2941.133057 
	C1179.005859,2920.868408 1205.264404,2906.836670 1231.136230,2892.215332 
	C1234.841431,2890.121826 1240.107178,2888.823975 1242.946655,2896.221191 
z"/>
<path fill="#CCE3E6" opacity="1.000000" stroke="none" 
	d="
M1373.327881,2865.547852 
	C1374.140991,2861.336914 1377.907349,2860.386475 1382.067139,2860.373779 
	C1390.733398,2860.347412 1399.399536,2860.318848 1408.065796,2860.318848 
	C3065.993896,2860.319580 4723.921875,2860.327148 6381.850098,2860.247559 
	C6393.748535,2860.247070 6405.646484,2859.054932 6418.776367,2857.281982 
	C6498.706543,2856.150146 6577.405762,2856.155518 6656.871582,2857.474609 
	C6654.481934,2859.281006 6651.205566,2859.403564 6648.202148,2860.371338 
	C6645.323730,2861.298584 6642.729004,2863.103271 6640.009277,2864.522217 
	C6633.473145,2865.214355 6626.937012,2866.505859 6620.400391,2866.510254 
	C6464.421387,2866.615723 6308.442871,2866.577148 6152.463867,2866.576904 
	C4574.010742,2866.574707 2995.557861,2866.575684 1417.104858,2866.557617 
	C1403.116211,2866.557373 1389.127441,2866.306396 1373.327881,2865.547852 
z"/>
<path fill="#DBDDE1" opacity="1.000000" stroke="none" 
	d="
M2210.788086,2321.939697 
	C2220.396484,2317.934814 2230.770752,2315.145996 2239.455078,2309.674316 
	C2257.985352,2297.999023 2277.949707,2289.451660 2298.072998,2281.478271 
	C2322.871338,2271.652344 2346.668457,2259.639648 2371.510742,2249.859863 
	C2398.358154,2239.291016 2423.959473,2225.575928 2450.211426,2213.465576 
	C2460.936035,2208.518066 2471.914307,2204.112793 2482.827393,2199.582275 
	C2498.570312,2193.046387 2512.929199,2183.562500 2528.691406,2177.257080 
	C2552.294434,2167.815430 2575.043457,2156.428711 2599.035400,2147.804688 
	C2612.496094,2142.966064 2624.398193,2133.952393 2637.602783,2128.196777 
	C2654.302490,2120.917725 2670.117432,2111.333740 2688.246338,2107.531738 
	C2700.336182,2098.293457 2714.922363,2093.894531 2728.243652,2087.045654 
	C2741.642334,2080.157227 2755.027100,2072.602783 2769.304932,2068.249512 
	C2782.487793,2064.230225 2793.335205,2055.884277 2806.670410,2052.102295 
	C2819.663574,2048.417236 2831.699707,2041.023682 2843.788330,2034.569580 
	C2858.199707,2026.875366 2874.440674,2022.905640 2887.655518,2012.839233 
	C2904.251953,2010.020020 2917.482910,1999.456055 2932.604736,1993.206055 
	C2947.796387,1986.927246 2962.171387,1978.539429 2977.590820,1972.980469 
	C2995.563721,1966.500854 3011.740479,1956.487427 3029.270508,1949.208008 
	C3046.811523,1941.924072 3063.631104,1932.893188 3081.203613,1925.694824 
	C3110.248779,1913.796997 3137.864990,1898.840332 3166.793701,1886.713989 
	C3203.037109,1871.521484 3238.318604,1854.255859 3273.800537,1837.385498 
	C3290.692627,1829.353760 3307.619141,1820.594360 3325.762695,1815.014404 
	C3330.696045,1813.496948 3334.983887,1809.997192 3339.758301,1807.826416 
	C3384.574707,1787.451416 3429.448975,1767.204346 3474.265137,1746.829102 
	C3484.358643,1742.240112 3493.937256,1736.246826 3504.370361,1732.731934 
	C3526.853271,1725.157104 3546.605469,1711.697021 3568.833740,1703.812012 
	C3583.656982,1698.553711 3597.356689,1690.829102 3612.237305,1685.526245 
	C3622.383789,1681.910522 3631.603027,1674.924194 3641.849365,1670.391724 
	C3661.536133,1661.683228 3681.491943,1653.310669 3700.718750,1643.910400 
	C3725.570068,1631.760498 3750.766113,1620.515015 3776.000488,1609.286499 
	C3807.245850,1595.383301 3837.294189,1578.790405 3868.854980,1565.769287 
	C3907.473877,1549.836060 3943.922363,1529.078735 3983.435791,1515.270752 
	C3994.582031,1504.294800 4011.850830,1505.983765 4023.443115,1495.930542 
	C4037.963135,1492.927368 4049.181152,1482.809448 4062.722168,1477.699585 
	C4087.857178,1468.214600 4111.216309,1454.881470 4135.713867,1444.063843 
	C4148.738281,1438.312500 4161.569824,1431.115112 4178.086914,1431.721436 
	C4179.803223,1433.826416 4179.885254,1434.865356 4178.757324,1436.586182 
	C4160.631348,1445.119751 4143.754883,1453.056396 4126.793945,1460.810181 
	C3824.472168,1599.019775 3522.136475,1737.199951 3219.810791,1875.401001 
	C2916.268311,2014.158203 2612.741699,2152.948975 2309.182617,2291.669434 
	C2281.325439,2304.399414 2253.283203,2316.724121 2222.844482,2328.142822 
	C2217.170654,2325.345459 2213.979492,2323.642578 2210.788086,2321.939697 
z"/>
<path fill="#E1F6F9" opacity="1.000000" stroke="none" 
	d="
M1348.000854,7011.905762 
	C1404.528809,7016.801758 1461.190063,7015.160645 1517.806030,7015.162598 
	C3187.335449,7015.216797 4856.865234,7015.201660 6526.394531,7015.202637 
	C6533.725586,7015.202637 6541.056641,7015.273926 6549.361328,7016.680664 
	C6548.709961,7019.168945 6547.084961,7020.288086 6545.459961,7021.406738 
	C6440.133301,7021.366211 6334.807129,7021.290527 6229.480469,7021.290039 
	C4626.246582,7021.283691 3023.013184,7021.287598 1419.779419,7021.286621 
	C1397.115112,7021.286621 1374.450684,7021.256836 1349.833252,7019.438477 
	C1347.920410,7015.725586 1347.960571,7013.815430 1348.000854,7011.905762 
z"/>
<path fill="#B4B6C0" opacity="1.000000" stroke="none" 
	d="
M4179.967285,1435.904053 
	C4179.885254,1434.865356 4179.803223,1433.826416 4179.675781,1431.224609 
	C4210.329102,1415.471802 4240.973145,1401.163818 4271.736328,1387.115601 
	C4339.319824,1356.253052 4406.995605,1325.593262 4474.571777,1294.714233 
	C4527.694336,1270.439575 4580.674316,1245.854004 4633.810547,1221.608887 
	C4670.604004,1204.820801 4707.600586,1188.478882 4744.414062,1171.734497 
	C4761.927734,1163.768799 4779.146973,1155.157715 4796.635742,1147.136719 
	C4856.948730,1119.474731 4917.314453,1091.927368 4977.675293,1064.369141 
	C5017.490723,1046.190918 5057.219238,1027.815674 5097.200684,1010.009155 
	C5125.400879,997.449585 5154.847168,989.983887 5186.070312,991.083374 
	C5194.712891,991.387695 5203.393555,990.755737 5212.025879,991.178894 
	C5217.921875,991.467896 5223.764160,992.841980 5230.891602,995.606201 
	C5232.122070,998.234192 5232.091797,998.986877 5230.304688,999.839783 
	C5210.708496,997.416626 5192.840332,995.413025 5174.788574,997.350586 
	C5146.763672,1000.358582 5119.980957,1007.530396 5094.247559,1019.343872 
	C4956.866699,1082.411499 4819.354492,1145.192993 4681.869629,1208.033447 
	C4526.822754,1278.900513 4371.769043,1349.751221 4216.675781,1420.515869 
	C4204.611328,1426.020874 4192.211426,1430.791992 4179.967285,1435.904053 
z"/>
<path fill="#CFCFCF" opacity="1.000000" stroke="none" 
	d="
M5232.061035,999.739624 
	C5232.091797,998.986877 5232.122070,998.234192 5232.199707,996.352539 
	C5249.342285,994.513489 5264.697266,1001.387146 5280.293457,1006.724243 
	C5307.060547,1015.884216 5330.053711,1031.879639 5351.203125,1050.057617 
	C5363.626953,1060.735718 5373.977051,1073.918823 5384.653320,1086.490723 
	C5388.781250,1091.351074 5391.266113,1097.616333 5394.437012,1103.276733 
	C5397.626953,1108.971191 5402.712402,1113.456787 5403.762207,1120.584595 
	C5404.296387,1124.211792 5407.356934,1127.479126 5409.324219,1130.881104 
	C5413.291992,1137.743042 5416.833984,1144.373535 5416.555176,1153.030273 
	C5416.380371,1158.454834 5420.514160,1163.881958 5421.565430,1169.522217 
	C5422.522461,1174.658081 5422.552734,1179.463501 5425.767578,1184.388916 
	C5428.334961,1188.322266 5427.745605,1194.498535 5428.018066,1199.707520 
	C5428.495605,1208.834473 5426.652832,1218.084961 5432.608887,1226.575439 
	C5434.571777,1229.373291 5433.690430,1234.307373 5433.746582,1238.270020 
	C5433.831055,1244.261353 5434.575195,1249.519775 5438.072754,1255.097900 
	C5440.918457,1259.636230 5440.436035,1266.483643 5440.737793,1272.342896 
	C5441.210938,1281.526245 5439.658691,1290.857056 5445.602051,1299.226807 
	C5447.307129,1301.628418 5447.130859,1305.554688 5447.312500,1308.810181 
	C5447.676758,1315.340698 5448.168457,1321.317627 5451.265625,1327.754761 
	C5454.169922,1333.791138 5452.549316,1342.029053 5452.818848,1349.302002 
	C5453.108398,1357.110107 5451.502930,1365.093994 5457.562500,1371.976074 
	C5459.391602,1374.053467 5459.090820,1378.209961 5459.323730,1381.445801 
	C5459.746582,1387.303101 5458.960938,1393.041138 5463.192871,1398.443726 
	C5465.271973,1401.097534 5464.579102,1406.070068 5464.783691,1410.011597 
	C5465.127441,1416.645508 5465.187012,1423.294067 5466.627930,1431.298950 
	C5466.040039,1434.732910 5464.189453,1436.804565 5460.725586,1438.057617 
	C5452.641602,1401.226807 5446.129883,1365.222046 5439.710449,1329.200928 
	C5430.606445,1278.112793 5422.621094,1226.797974 5412.249512,1175.969360 
	C5397.917480,1105.734741 5357.216309,1054.638428 5294.137207,1021.150330 
	C5274.592285,1010.774048 5253.531250,1004.622192 5232.061035,999.739624 
z"/>
<path fill="#F4F7F9" opacity="1.000000" stroke="none" 
	d="
M6641.554688,2864.779785 
	C6642.729004,2863.103271 6645.323730,2861.298584 6648.202148,2860.371338 
	C6651.205566,2859.403564 6654.481934,2859.281006 6658.684570,2857.904785 
	C6672.364258,2855.761230 6684.904297,2854.866211 6696.717773,2861.308350 
	C6698.909180,2862.503174 6701.845703,2862.588623 6704.459961,2862.708008 
	C6724.005371,2863.601318 6741.222168,2871.931152 6758.580078,2879.680176 
	C6776.059082,2887.483398 6791.760254,2898.583984 6808.541504,2907.530029 
	C6825.729980,2916.692871 6840.883301,2928.196777 6855.692383,2940.338623 
	C6868.503906,2950.842773 6882.173340,2961.023193 6892.391602,2973.802490 
	C6908.807617,2994.333008 6927.137695,3013.689453 6938.905762,3037.687744 
	C6941.791992,3043.573975 6944.074219,3050.061768 6948.200195,3054.952881 
	C6952.750488,3060.346924 6953.149414,3067.232666 6956.419922,3072.423584 
	C6960.000977,3078.107422 6963.296387,3082.970947 6964.098145,3089.970459 
	C6964.894043,3096.919922 6973.485352,3101.386230 6971.696777,3109.672852 
	C6969.955078,3117.744873 6975.246094,3123.335449 6978.250488,3129.867676 
	C6979.818848,3133.278564 6979.284668,3137.649658 6979.731445,3141.583740 
	C6980.321289,3146.777344 6980.943848,3151.967285 6982.198242,3158.609375 
	C6979.933105,3161.071289 6977.022461,3162.082031 6973.041016,3163.553711 
	C6970.512695,3159.673828 6968.580566,3155.429688 6967.670410,3150.976807 
	C6957.657227,3102.023682 6938.175781,3057.168213 6908.890625,3014.648926 
	C6908.035645,3013.155273 6907.384766,3012.301514 6907.384766,3012.301514 
	C6905.118652,3009.360352 6902.852051,3006.418945 6899.962891,3000.894531 
	C6898.640137,2994.148193 6895.779297,2992.534912 6891.957520,2992.056396 
	C6879.212891,2979.305420 6866.467773,2966.554443 6852.695312,2951.559326 
	C6850.047363,2944.906738 6846.263672,2943.917969 6842.220215,2943.340332 
	C6842.220215,2943.340332 6840.674805,2942.263184 6839.643066,2940.476074 
	C6837.275879,2938.081299 6835.939941,2937.473389 6834.604492,2936.865723 
	C6834.604492,2936.865723 6833.228516,2936.431152 6832.388672,2934.738281 
	C6829.538574,2928.419922 6825.355957,2927.842285 6821.085449,2927.428711 
	C6821.085449,2927.428711 6820.610840,2927.440186 6820.091797,2926.043945 
	C6817.697754,2921.278076 6814.679688,2920.322510 6811.067871,2920.621338 
	C6809.330078,2919.812988 6807.592773,2919.004395 6804.537109,2917.186523 
	C6803.219238,2916.176758 6802.391113,2915.788086 6802.391113,2915.788086 
	C6799.747559,2914.304688 6797.104004,2912.821533 6792.814941,2910.020508 
	C6790.527344,2908.161865 6789.791992,2907.825684 6788.962891,2907.694092 
	C6788.066895,2907.352295 6787.170410,2907.010498 6784.640625,2905.552734 
	C6782.385742,2904.001465 6781.698242,2903.742188 6780.943848,2903.658447 
	C6777.118164,2901.914795 6773.292480,2900.170898 6767.924805,2896.593750 
	C6764.935547,2894.401367 6763.487305,2894.042236 6762.039551,2893.683105 
	C6758.119629,2892.534424 6754.199219,2891.385986 6748.560547,2889.205566 
	C6746.842285,2888.173828 6745.010742,2887.615967 6745.010742,2887.615967 
	C6744.210449,2887.413330 6743.410645,2887.210693 6740.902832,2885.353271 
	C6736.590332,2880.739746 6733.416504,2880.583008 6729.958984,2881.822266 
	C6726.297852,2880.946777 6722.637207,2880.071289 6717.350586,2877.739258 
	C6713.473633,2872.904541 6710.976074,2872.343994 6708.144043,2875.622314 
	C6704.747559,2875.030273 6701.351074,2874.438232 6696.618164,2872.531250 
	C6694.204102,2871.393066 6693.127441,2871.569580 6692.050293,2871.746094 
	C6687.825195,2871.185059 6683.599609,2870.624268 6677.437500,2868.687256 
	C6672.941895,2864.647217 6670.491211,2864.545410 6668.174316,2867.619385 
	C6659.815918,2866.758789 6651.458008,2865.898193 6641.554688,2864.779785 
z"/>
<path fill="#F4F7F9" opacity="1.000000" stroke="none" 
	d="
M6867.481445,6914.834961 
	C6883.014160,6895.797852 6898.547852,6876.760742 6916.429688,6856.896484 
	C6920.518066,6856.046387 6922.259277,6856.023438 6924.745117,6856.624023 
	C6925.490723,6857.248047 6927.039062,6858.423828 6927.039062,6858.423828 
	C6918.953613,6870.324219 6912.204102,6883.244629 6900.815918,6892.625000 
	C6899.829102,6893.437988 6899.017578,6894.568359 6898.392090,6895.699219 
	C6883.494629,6922.640625 6859.593262,6939.731934 6834.070801,6955.291992 
	C6816.814941,6965.812500 6799.718262,6976.601562 6781.801270,6985.951660 
	C6773.665039,6990.196777 6764.942871,6993.318848 6754.738281,6997.063965 
	C6752.990234,6997.177246 6752.018066,6996.027832 6752.493164,6995.135742 
	C6754.081543,6993.505371 6755.195312,6992.768066 6757.140625,6991.415527 
	C6758.650879,6989.609375 6759.330078,6988.418457 6760.008789,6987.227539 
	C6760.008301,6987.227051 6760.861816,6986.660156 6762.526367,6986.763672 
	C6765.393555,6985.720215 6766.595703,6984.572754 6767.798340,6983.425293 
	C6772.142578,6980.971680 6776.486328,6978.518555 6783.381836,6975.859375 
	C6787.871582,6974.155273 6789.810059,6972.656738 6791.748047,6971.158203 
	C6796.570312,6967.892578 6801.291992,6964.464844 6806.233887,6961.391602 
	C6822.246094,6951.436035 6837.525391,6940.488770 6854.619141,6927.816406 
	C6864.893555,6926.546875 6867.733398,6921.934082 6867.481445,6914.834961 
z"/>
<path fill="#F4F7F9" opacity="1.000000" stroke="none" 
	d="
M6976.000000,6720.000000 
	C6976.934082,6720.080566 6977.868652,6720.161621 6980.194336,6720.445312 
	C6980.968750,6725.851562 6980.468750,6731.073242 6979.694336,6736.253418 
	C6979.120605,6740.094238 6979.438965,6745.063477 6977.171875,6747.461426 
	C6971.412598,6753.553223 6970.839355,6760.650391 6971.932129,6767.752441 
	C6973.434082,6777.511230 6966.641602,6783.618652 6963.341309,6791.255371 
	C6953.543945,6813.922363 6942.291992,6835.834473 6928.053223,6857.567383 
	C6927.039062,6858.423828 6925.490723,6857.248047 6924.679688,6854.949219 
	C6923.613770,6850.422852 6923.358887,6848.195801 6923.104492,6845.968750 
	C6926.584473,6839.093750 6930.063965,6832.218750 6934.598633,6823.980469 
	C6935.653809,6822.617188 6936.216309,6821.733887 6936.216309,6821.733887 
	C6942.311035,6807.289062 6948.405762,6792.843750 6956.326172,6776.662109 
	C6963.774902,6769.434082 6963.774902,6769.432617 6960.054688,6764.017578 
	C6960.431641,6761.778320 6960.809082,6759.539551 6962.664551,6756.285156 
	C6964.519043,6754.947754 6965.265625,6754.445312 6965.211426,6754.333008 
	C6964.808105,6753.503906 6964.244629,6752.752930 6963.731445,6751.977539 
	C6964.121094,6748.951660 6964.511230,6745.926270 6966.466797,6741.209961 
	C6971.795898,6737.141113 6971.524414,6734.652832 6968.233887,6732.082031 
	C6968.589355,6729.070801 6968.944336,6726.059570 6970.849609,6721.615234 
	C6973.597168,6720.062988 6974.797363,6720.002441 6976.000000,6720.000000 
z"/>
<path fill="#CCE3E6" opacity="1.000000" stroke="none" 
	d="
M6546.661133,7022.470703 
	C6547.084961,7020.288086 6548.709961,7019.168945 6551.237305,7016.874512 
	C6557.654785,7015.505859 6563.170898,7015.312500 6570.511719,7016.724609 
	C6578.681152,7025.016113 6580.592773,7024.584473 6584.037109,7015.687012 
	C6592.187012,7015.495117 6600.336426,7015.303223 6610.425781,7017.225586 
	C6612.537598,7020.557129 6612.709473,7021.774902 6612.881348,7022.992188 
	C6609.262207,7024.152344 6605.696289,7026.086914 6602.014648,7026.340332 
	C6583.875488,7027.587402 6565.776855,7027.080078 6546.661133,7022.470703 
z"/>
<path fill="#E1F6F9" opacity="1.000000" stroke="none" 
	d="
M6614.652344,7022.629883 
	C6612.709473,7021.774902 6612.537598,7020.557129 6612.153809,7017.506836 
	C6629.436523,7014.457031 6646.930664,7013.240234 6666.272461,7013.437012 
	C6668.040527,7016.728516 6667.961426,7018.605957 6667.882324,7020.483887 
	C6650.729492,7021.078613 6633.576660,7021.673340 6614.652344,7022.629883 
z"/>
<path fill="#B4B6C0" opacity="1.000000" stroke="none" 
	d="
M2210.182617,2321.897217 
	C2213.979492,2323.642578 2217.170654,2325.345459 2221.605469,2329.303467 
	C2219.571289,2334.058594 2213.533691,2334.184570 2215.015625,2340.603027 
	C2215.072021,2340.475586 2214.958008,2341.169434 2214.958008,2341.169434 
	C2207.783203,2347.626221 2199.739258,2349.703125 2187.009766,2346.426758 
	C2194.629639,2341.784180 2199.494873,2338.753662 2204.427979,2335.837646 
	C2207.662842,2333.925537 2209.076172,2331.311768 2207.964111,2326.119141 
	C2207.690430,2323.396484 2208.286377,2322.462402 2210.182617,2321.897217 
z"/>
<path fill="#CCE3E6" opacity="1.000000" stroke="none" 
	d="
M1270.397339,2875.716797 
	C1277.079590,2879.154297 1282.756958,2880.559326 1289.483765,2877.860596 
	C1294.635742,2875.793945 1300.422607,2875.309570 1306.907471,2874.920898 
	C1296.547241,2882.225342 1283.940552,2885.164307 1269.914307,2887.149414 
	C1268.202393,2882.692871 1268.098022,2879.720459 1267.993652,2876.747803 
	C1267.993652,2876.747803 1269.468872,2875.593506 1270.397339,2875.716797 
z"/>
<path fill="#CCE3E6" opacity="1.000000" stroke="none" 
	d="
M1347.075439,7011.318359 
	C1347.960571,7013.815430 1347.920410,7015.725586 1347.998779,7019.063477 
	C1343.913208,7019.843750 1339.685303,7019.319336 1335.511597,7018.514648 
	C1331.246704,7017.691406 1327.034912,7016.594238 1321.754272,7014.327637 
	C1322.620972,7010.877930 1322.300781,7008.783203 1320.522583,7006.731445 
	C1329.065063,7008.064941 1337.607422,7009.397949 1347.075439,7011.318359 
z"/>
<path fill="#E1F6F9" opacity="1.000000" stroke="none" 
	d="
M6691.955078,7007.988281 
	C6696.403320,7006.676270 6700.851074,7005.363770 6707.791992,7004.095215 
	C6716.828613,7005.207520 6716.825195,7005.205078 6713.091797,7010.718750 
	C6712.754395,7011.217285 6712.509766,7011.777832 6712.221680,7012.309570 
	C6707.731445,7013.263672 6703.241211,7014.217773 6696.892578,7014.102539 
	C6694.007324,7011.351562 6692.981445,7009.669922 6691.955078,7007.988281 
z"/>
<path fill="#CCE3E6" opacity="1.000000" stroke="none" 
	d="
M6713.796875,7012.139160 
	C6712.509766,7011.777832 6712.754395,7011.217285 6713.091797,7010.718750 
	C6716.825195,7005.205078 6716.828613,7005.207520 6709.193359,7004.074219 
	C6713.712402,7002.215332 6719.322266,7000.421875 6727.306152,7000.350586 
	C6731.872559,7003.367188 6734.064453,7004.661621 6736.256836,7005.956055 
	C6733.389648,7006.833496 6730.534668,7007.754395 6727.651855,7008.579102 
	C6723.569336,7009.746582 6719.465820,7010.842285 6713.796875,7012.139160 
z"/>
<path fill="#FDFDFD" opacity="1.000000" stroke="none" 
	d="
M1266.380859,2876.749023 
	C1268.098022,2879.720459 1268.202393,2882.692871 1268.350220,2887.156250 
	C1263.410400,2890.457275 1258.427124,2892.267578 1251.855469,2893.653809 
	C1245.737427,2890.931396 1244.437866,2887.583740 1249.016113,2884.599121 
	C1253.898193,2881.417236 1259.487549,2879.320557 1266.380859,2876.749023 
z"/>
<path fill="#F4F7F9" opacity="1.000000" stroke="none" 
	d="
M6737.416992,7005.667969 
	C6734.064453,7004.661621 6731.872559,7003.367188 6728.376465,7000.662109 
	C6727.072754,6999.251465 6728.417969,6998.526855 6730.156250,6998.666992 
	C6733.444336,6997.761230 6734.994141,6996.715332 6736.544434,6995.669434 
	C6738.177246,6994.824707 6739.809570,6993.979492 6743.583008,6993.685547 
	C6747.822266,6994.833496 6749.919922,6995.430664 6752.018066,6996.027832 
	C6752.018066,6996.027832 6752.990234,6997.177246 6753.456055,6997.768555 
	C6748.807617,7000.699219 6743.692871,7003.039551 6737.416992,7005.667969 
z"/>
<path fill="#CCE3E6" opacity="1.000000" stroke="none" 
	d="
M6668.910156,7020.960938 
	C6667.961426,7018.605957 6668.040527,7016.728516 6668.071289,7013.440918 
	C6669.996582,7011.560547 6671.970215,7011.089844 6675.364258,7011.904785 
	C6678.897949,7013.830566 6681.010254,7014.470215 6683.516602,7015.521484 
	C6683.911133,7015.933105 6684.691406,7016.762695 6684.691406,7016.762695 
	C6680.867676,7021.773926 6675.043457,7020.473145 6668.910156,7020.960938 
z"/>
<path fill="#2B3669" opacity="1.000000" stroke="none" 
	d="
M5471.567383,1550.773438 
	C5465.701660,1551.560181 5459.959473,1551.560181 5453.453613,1551.560181 
	C5455.349121,1547.216064 5458.806641,1549.665039 5461.088379,1548.908813 
	C5463.512695,1548.105347 5466.208496,1548.121338 5470.129883,1548.094238 
	C5471.473145,1548.408936 5471.690430,1549.986694 5471.567383,1550.773438 
z"/>
<path fill="#E1F6F9" opacity="1.000000" stroke="none" 
	d="
M1319.206543,7006.049805 
	C1322.300781,7008.783203 1322.620972,7010.877930 1320.434082,7013.741699 
	C1318.349365,7014.581543 1316.539307,7014.718262 1313.417725,7014.469727 
	C1312.059692,7011.725586 1312.012817,7009.367676 1312.006348,7005.832031 
	C1313.994629,7004.892578 1315.942505,7005.130371 1319.206543,7006.049805 
z"/>
<path fill="#CCE3E6" opacity="1.000000" stroke="none" 
	d="
M6690.877930,7007.839844 
	C6692.981445,7009.669922 6694.007324,7011.351562 6695.477051,7013.925781 
	C6693.130859,7015.377930 6690.340820,7015.937988 6686.121094,7016.630371 
	C6684.691406,7016.762695 6683.911133,7015.933105 6683.742188,7014.179688 
	C6683.628906,7011.518066 6683.684570,7010.609863 6683.740234,7009.702148 
	C6685.760742,7009.032227 6687.780762,7008.362305 6690.877930,7007.839844 
z"/>
<path fill="#2B3669" opacity="1.000000" stroke="none" 
	d="
M5524.312500,1678.240479 
	C5520.852051,1679.087036 5517.846680,1679.424194 5514.841797,1679.761353 
	C5514.751953,1679.028320 5514.662109,1678.295166 5514.572266,1677.562134 
	C5516.810059,1677.219604 5519.048340,1676.877075 5522.572266,1676.623047 
	C5523.858398,1676.711304 5524.767578,1677.731201 5524.312500,1678.240479 
z"/>
<path fill="#F4F7F9" opacity="1.000000" stroke="none" 
	d="
M6974.341309,4356.326172 
	C6970.609863,4371.629395 6970.610352,4371.661621 6955.738770,4371.961914 
	C6950.409668,4372.069824 6945.075684,4371.979980 6939.744141,4371.979980 
	C6536.528809,4371.979980 6133.313965,4372.028320 5730.098633,4371.838379 
	C5709.999512,4371.829102 5690.513184,4375.480469 5670.859375,4378.421875 
	C5660.426270,4379.982910 5650.081543,4382.134766 5639.284668,4384.094727 
	C5634.027344,4399.010254 5623.577148,4406.809082 5609.404785,4411.668457 
	C5594.459961,4416.792480 5582.136719,4426.865234 5570.264160,4437.310547 
	C5566.960449,4440.216797 5562.143555,4441.402832 5556.508789,4443.286133 
	C5567.235840,4423.332520 5585.883789,4410.370605 5604.842285,4398.091309 
	C5646.216309,4371.291992 5691.582031,4358.949707 5741.119629,4358.991211 
	C6141.103516,4359.324219 6541.087402,4359.188477 6941.071289,4359.071289 
	C6951.638672,4359.068359 6962.205566,4357.657227 6974.341309,4356.326172 
z"/>
<path fill="#E1F6F9" opacity="1.000000" stroke="none" 
	d="
M6971.898438,5522.112305 
	C6975.783691,5520.624023 6979.133301,5522.591309 6979.457520,5527.327637 
	C6979.910645,5533.952637 6979.961914,5540.614258 6979.962402,5547.260254 
	C6979.983398,5860.730469 6979.979980,6174.201172 6979.979980,6487.671387 
	C6979.979980,6546.904785 6980.061523,6606.138672 6979.873535,6665.371094 
	C6979.851074,6672.476074 6981.994629,6680.078613 6975.837891,6687.424805 
	C6974.238770,6684.302734 6973.492188,6680.361816 6973.492676,6676.420898 
	C6973.520020,6298.868164 6973.610352,5921.315918 6973.634277,5543.763184 
	C6973.634766,5537.139160 6972.886719,5530.515137 6971.898438,5522.112305 
z"/>
<path fill="#F4F7F9" opacity="1.000000" stroke="none" 
	d="
M5536.037109,5413.480469 
	C5548.122070,5416.599121 5560.507324,5420.560547 5567.800781,5433.208008 
	C5571.834961,5440.204102 5579.308594,5444.012207 5586.607910,5447.406738 
	C5591.742188,5449.794434 5595.159180,5453.457520 5595.910156,5459.346191 
	C5597.530762,5472.057129 5607.112305,5476.277344 5617.600586,5479.656738 
	C5626.391113,5482.489746 5635.089355,5485.611328 5643.807129,5488.665527 
	C5649.634277,5490.707031 5651.732910,5495.271484 5651.962402,5502.563477 
	C5637.094238,5502.059082 5624.597168,5494.118652 5612.219727,5486.662598 
	C5581.762695,5468.313477 5555.504883,5445.217285 5536.037109,5413.480469 
z"/>
<path fill="#F4F7F9" opacity="1.000000" stroke="none" 
	d="
M5526.930664,4480.741211 
	C5530.030273,4481.737305 5533.162109,4483.138672 5533.729492,4485.234375 
	C5536.610352,4495.867188 5532.291504,4505.724609 5528.812012,4515.391602 
	C5528.011230,4517.616211 5523.556641,4519.198242 5520.527344,4519.816406 
	C5512.682129,4521.416504 5510.096191,4527.016113 5508.470703,4533.749023 
	C5506.314941,4542.678223 5503.738281,4551.523438 5502.000000,4560.531250 
	C5500.763184,4566.938965 5500.905762,4573.603027 5499.865723,4580.062012 
	C5499.272461,4583.741211 5497.540527,4587.237305 5495.009766,4591.434570 
	C5490.878906,4577.237305 5495.536133,4563.163574 5498.568359,4549.080566 
	C5503.739746,4525.063477 5512.199219,4502.188477 5526.930664,4480.741211 
z"/>
<path fill="#F4F7F9" opacity="1.000000" stroke="none" 
	d="
M5493.394531,5293.561523 
	C5495.768555,5294.296387 5498.932617,5296.407715 5499.513672,5299.080078 
	C5502.566895,5313.141113 5505.195312,5327.307129 5507.508789,5341.512207 
	C5508.832520,5349.635254 5511.414062,5356.650391 5518.391113,5361.687500 
	C5520.395020,5363.134766 5522.209961,5365.543945 5522.979492,5367.884277 
	C5527.473145,5381.550781 5531.630371,5395.328613 5535.883789,5410.634277 
	C5526.549805,5405.061523 5522.441406,5394.221680 5517.582520,5384.367676 
	C5503.748535,5356.313965 5494.846680,5326.667969 5493.394531,5293.561523 
z"/>
<path fill="#F4F7F9" opacity="1.000000" stroke="none" 
	d="
M5701.362793,5517.397461 
	C5701.707031,5514.089355 5703.087891,5509.699219 5705.221191,5509.295410 
	C5710.861816,5508.229980 5716.947266,5508.216797 5722.603027,5509.216309 
	C5724.706543,5509.588867 5726.106934,5513.941406 5727.934570,5518.007812 
	C5719.608398,5519.068359 5711.175293,5518.600586 5701.362793,5517.397461 
z"/>
<path fill="#F4F7F9" opacity="1.000000" stroke="none" 
	d="
M5553.941406,4443.458984 
	C5554.675293,4454.612793 5549.985352,4463.385254 5537.165039,4467.763672 
	C5538.914551,4458.150879 5546.179688,4451.289551 5553.941406,4443.458984 
z"/>
<path fill="#F4F7F9" opacity="1.000000" stroke="none" 
	d="
M6973.600586,3185.467285 
	C6975.885742,3186.250732 6979.167969,3188.433838 6979.397461,3190.900879 
	C6979.853516,3195.801758 6978.627441,3200.858887 6977.133301,3206.901855 
	C6975.185547,3200.966797 6974.201172,3193.981201 6973.600586,3185.467285 
z"/>
<path fill="#E1F6F9" opacity="1.000000" stroke="none" 
	d="
M6866.243652,6915.300293 
	C6867.733398,6921.934082 6864.893555,6926.546875 6855.833496,6927.338867 
	C6857.860840,6923.439941 6861.433594,6919.602539 6866.243652,6915.300293 
z"/>
<path fill="#CCE3E6" opacity="1.000000" stroke="none" 
	d="
M1336.762085,2870.200684 
	C1337.860229,2864.910156 1341.386963,2863.484863 1347.061768,2866.887695 
	C1344.569458,2868.674072 1341.298584,2869.659912 1336.762085,2870.200684 
z"/>
<path fill="#E1F6F9" opacity="1.000000" stroke="none" 
	d="
M6582.533203,7015.503906 
	C6580.592773,7024.584473 6578.681152,7025.016113 6572.148926,7017.008789 
	C6574.984375,7015.565430 6578.006836,7015.442871 6582.533203,7015.503906 
z"/>
<path fill="#CCE3E6" opacity="1.000000" stroke="none" 
	d="
M6842.479492,2944.467773 
	C6846.263672,2943.917969 6850.047363,2944.906738 6851.899902,2950.496094 
	C6849.000977,2949.650146 6845.870117,2947.622803 6842.479492,2944.467773 
z"/>
<path fill="#CCE3E6" opacity="1.000000" stroke="none" 
	d="
M6821.571289,2928.534180 
	C6825.355957,2927.842285 6829.538574,2928.419922 6831.842773,2934.266357 
	C6828.776855,2933.538086 6825.416992,2931.588623 6821.571289,2928.534180 
z"/>
<path fill="#E1F6F9" opacity="1.000000" stroke="none" 
	d="
M6959.148926,6764.960938 
	C6963.774902,6769.432617 6963.774902,6769.434082 6957.105469,6775.453613 
	C6956.786621,6772.623047 6957.514648,6769.264160 6959.148926,6764.960938 
z"/>
<path fill="#CCE3E6" opacity="1.000000" stroke="none" 
	d="
M6752.493164,6995.135742 
	C6749.919922,6995.430664 6747.822266,6994.833496 6744.949219,6993.458008 
	C6747.204590,6991.125977 6750.234375,6989.571777 6754.656250,6989.035645 
	C6756.048828,6990.053711 6756.308594,6992.029785 6756.308594,6992.030273 
	C6755.195312,6992.768066 6754.081543,6993.505371 6752.493164,6995.135742 
z"/>
<path fill="#E1F6F9" opacity="1.000000" stroke="none" 
	d="
M6975.865723,6718.843750 
	C6974.797363,6720.002441 6973.597168,6720.062988 6971.505859,6720.236328 
	C6970.615723,6718.107422 6970.619629,6715.922852 6971.366211,6712.874512 
	C6973.316895,6713.902344 6974.524414,6715.794922 6975.865723,6718.843750 
z"/>
<path fill="#E1F6F9" opacity="1.000000" stroke="none" 
	d="
M6967.480469,6732.905273 
	C6971.524414,6734.652832 6971.795898,6737.141113 6967.134766,6739.829590 
	C6966.400879,6738.002441 6966.563965,6735.865723 6967.480469,6732.905273 
z"/>
<path fill="#E1F6F9" opacity="1.000000" stroke="none" 
	d="
M6922.024414,6846.667480 
	C6923.358887,6848.195801 6923.613770,6850.422852 6923.934570,6854.325195 
	C6922.259277,6856.023438 6920.518066,6856.046387 6917.472168,6856.062988 
	C6917.759277,6853.159668 6919.351562,6850.262695 6922.024414,6846.667480 
z"/>
<path fill="#CCE3E6" opacity="1.000000" stroke="none" 
	d="
M6892.181641,2993.257568 
	C6895.779297,2992.534912 6898.640137,2994.148193 6899.340820,2999.646240 
	C6897.030273,2998.806885 6894.718262,2996.632812 6892.181641,2993.257568 
z"/>
<path fill="#CCE3E6" opacity="1.000000" stroke="none" 
	d="
M6811.574219,2921.733154 
	C6814.679688,2920.322510 6817.697754,2921.278076 6819.999023,2925.825684 
	C6817.643555,2925.617432 6814.861816,2924.231201 6811.574219,2921.733154 
z"/>
<path fill="#CCE3E6" opacity="1.000000" stroke="none" 
	d="
M6730.752930,2882.719482 
	C6733.416504,2880.583008 6736.590332,2880.739746 6739.804688,2884.780518 
	C6737.458984,2885.114014 6734.502930,2884.365479 6730.752930,2882.719482 
z"/>
<path fill="#CCE3E6" opacity="1.000000" stroke="none" 
	d="
M6708.942871,2876.470947 
	C6710.976074,2872.343994 6713.473633,2872.904541 6716.055664,2877.177734 
	C6714.170898,2877.821533 6711.956055,2877.570557 6708.942871,2876.470947 
z"/>
<path fill="#CCE3E6" opacity="1.000000" stroke="none" 
	d="
M1320.518066,2873.452393 
	C1320.996460,2870.175537 1322.899048,2868.067627 1327.147949,2870.506348 
	C1325.716309,2872.068115 1323.667358,2872.979980 1320.518066,2873.452393 
z"/>
<path fill="#CCE3E6" opacity="1.000000" stroke="none" 
	d="
M6669.036621,2868.377197 
	C6670.491211,2864.545410 6672.941895,2864.647217 6675.966797,2868.049316 
	C6674.255371,2868.903320 6672.077148,2869.019043 6669.036621,2868.377197 
z"/>
<path fill="#E1F6F9" opacity="1.000000" stroke="none" 
	d="
M6682.335938,7009.821289 
	C6683.684570,7010.609863 6683.628906,7011.518066 6683.347656,7013.768555 
	C6681.010254,7014.470215 6678.897949,7013.830566 6676.119141,7012.223633 
	C6677.278809,7010.817871 6679.104980,7010.378906 6682.335938,7009.821289 
z"/>
<path fill="#E1F6F9" opacity="1.000000" stroke="none" 
	d="
M6790.511719,6971.311523 
	C6789.810059,6972.656738 6787.871582,6974.155273 6784.632812,6975.667480 
	C6785.313477,6974.275391 6787.294922,6972.870117 6790.511719,6971.311523 
z"/>
<path fill="#CCE3E6" opacity="1.000000" stroke="none" 
	d="
M6735.600098,6995.366699 
	C6734.994141,6996.715332 6733.444336,6997.761230 6730.916992,6998.597168 
	C6731.511719,6997.279785 6733.083984,6996.171875 6735.600098,6995.366699 
z"/>
<path fill="#E1F6F9" opacity="1.000000" stroke="none" 
	d="
M6757.140625,6991.415039 
	C6756.308594,6992.029785 6756.048828,6990.053711 6755.987305,6989.059570 
	C6756.582520,6987.812012 6757.239258,6987.558105 6758.952148,6987.266113 
	C6759.330078,6988.418457 6758.650879,6989.609375 6757.140625,6991.415039 
z"/>
<path fill="#E1F6F9" opacity="1.000000" stroke="none" 
	d="
M6766.566406,6983.702637 
	C6766.595703,6984.572754 6765.393555,6985.720215 6762.919922,6987.091797 
	C6762.876953,6986.204102 6764.105469,6985.091797 6766.566406,6983.702637 
z"/>
<path fill="#E1F6F9" opacity="1.000000" stroke="none" 
	d="
M6935.752930,6821.695312 
	C6936.216309,6821.733887 6935.653809,6822.617188 6935.543945,6822.834961 
	C6935.434082,6823.052246 6935.290039,6821.657227 6935.752930,6821.695312 
z"/>
<path fill="#E1F6F9" opacity="1.000000" stroke="none" 
	d="
M6963.254883,6752.798340 
	C6964.244629,6752.752930 6964.808105,6753.503906 6965.211426,6754.333008 
	C6965.265625,6754.445312 6964.519043,6754.947754 6963.391602,6755.391602 
	C6962.641113,6755.513184 6962.777832,6753.619141 6963.254883,6752.798340 
z"/>
<path fill="#E1F6F9" opacity="1.000000" stroke="none" 
	d="
M5661.069824,5508.282227 
	C5660.891113,5507.723145 5662.502930,5508.121094 5662.854492,5508.325195 
	C5663.205566,5508.529297 5662.322266,5509.283691 5662.322266,5509.283691 
	C5662.322266,5509.283691 5661.248535,5508.840820 5661.069824,5508.282227 
z"/>
<path fill="#CCE3E6" opacity="1.000000" stroke="none" 
	d="
M6907.026367,3012.677490 
	C6907.384766,3012.301514 6908.035645,3013.155273 6908.138184,3013.395264 
	C6908.240723,3013.635254 6907.242188,3013.911133 6907.242188,3013.911133 
	C6907.242188,3013.911133 6906.667480,3013.053467 6907.026367,3012.677490 
z"/>
<path fill="#CCE3E6" opacity="1.000000" stroke="none" 
	d="
M6835.189453,2937.789062 
	C6835.939941,2937.473389 6837.275879,2938.081299 6839.088867,2939.714355 
	C6838.302734,2940.063721 6837.038086,2939.388184 6835.189453,2937.789062 
z"/>
<path fill="#CCE3E6" opacity="1.000000" stroke="none" 
	d="
M6802.255371,2916.257324 
	C6802.391113,2915.788086 6803.219238,2916.176758 6803.395508,2916.305420 
	C6803.571777,2916.434082 6802.119629,2916.726807 6802.255371,2916.257324 
z"/>
<path fill="#CCE3E6" opacity="1.000000" stroke="none" 
	d="
M6789.177734,2908.375977 
	C6789.791992,2907.825684 6790.527344,2908.161865 6791.575195,2909.147949 
	C6791.980957,2909.593750 6790.579590,2909.843994 6790.579590,2909.843994 
	C6790.579590,2909.843994 6789.393066,2909.058105 6789.177734,2908.375977 
z"/>
<path fill="#CCE3E6" opacity="1.000000" stroke="none" 
	d="
M6781.163086,2904.303711 
	C6781.698242,2903.742188 6782.385742,2904.001465 6783.419922,2904.791016 
	C6783.833008,2905.145020 6782.562012,2905.611328 6782.562012,2905.611328 
	C6782.562012,2905.611328 6781.381836,2904.948730 6781.163086,2904.303711 
z"/>
<path fill="#CCE3E6" opacity="1.000000" stroke="none" 
	d="
M6762.778809,2894.490723 
	C6763.487305,2894.042236 6764.935547,2894.401367 6766.991211,2895.742676 
	C6766.238770,2896.249512 6764.878418,2895.773926 6762.778809,2894.490723 
z"/>
<path fill="#CCE3E6" opacity="1.000000" stroke="none" 
	d="
M6745.208984,2888.222656 
	C6745.010742,2887.615967 6746.842285,2888.173828 6747.233398,2888.435059 
	C6747.624023,2888.696045 6746.552246,2889.369873 6746.552246,2889.369873 
	C6746.552246,2889.369873 6745.407227,2888.829102 6745.208984,2888.222656 
z"/>
<path fill="#CCE3E6" opacity="1.000000" stroke="none" 
	d="
M6692.921875,2872.162598 
	C6693.127441,2871.569580 6694.204102,2871.393066 6695.501953,2871.864990 
	C6695.722656,2872.513428 6693.792969,2872.579346 6692.921875,2872.162598 
z"/>
<path fill="#2B3669" opacity="1.000000" stroke="none" 
	d="
M5989.725098,1678.133423 
	C6032.817383,1715.059326 6059.778809,1760.044189 6069.611328,1814.523682 
	C6072.784180,1832.105225 6073.814453,1850.283569 6073.838867,1868.191528 
	C6074.119141,2074.183105 6074.014648,2280.175293 6074.014648,2486.167236 
	C6074.014648,2549.498047 6074.035645,2612.829102 6074.004395,2676.159912 
	C6074.000488,2683.388184 6073.718750,2690.616211 6073.550293,2698.569824 
	C6068.583008,2699.252197 6064.775879,2700.087158 6060.942871,2700.232666 
	C6054.285645,2700.485352 6047.612793,2700.315674 6040.946289,2700.315674 
	C4537.004883,2700.316406 3033.063477,2700.317139 1529.121948,2700.317383 
	C1515.327759,2700.317383 1501.533569,2700.317139 1483.856689,2700.317139 
	C1492.505371,2693.905762 1498.925171,2693.027588 1505.137207,2691.485840 
	C1589.835815,2670.462891 1674.510498,2649.343506 1759.209839,2628.323486 
	C1998.435059,2568.955078 2237.676025,2509.649902 2476.897461,2450.265869 
	C2704.474121,2393.772461 2932.028564,2337.190918 3159.601562,2280.683350 
	C3481.579102,2200.735352 3803.564209,2120.817627 4125.546875,2040.890625 
	C4324.028320,1991.620850 4522.508301,1942.343872 4720.995117,1893.095215 
	C4937.583496,1839.355225 5154.174805,1785.628784 5370.772461,1731.925903 
	C5506.564941,1698.257690 5642.354004,1664.577271 5778.176758,1631.031860 
	C5855.859375,1611.845825 5926.033691,1627.414795 5989.725098,1678.133423 
z"/>
<path fill="#2B3669" opacity="1.000000" stroke="none" 
	d="
M2214.958984,2340.730713 
	C2213.533691,2334.184570 2219.571289,2334.058594 2224.088379,2330.397949 
	C2253.283203,2316.724121 2281.325439,2304.399414 2309.182617,2291.669434 
	C2612.741699,2152.948975 2916.268311,2014.158203 3219.810791,1875.401001 
	C3522.136475,1737.199951 3824.472168,1599.019775 4126.793945,1460.810181 
	C4143.754883,1453.056396 4160.631348,1445.119751 4178.757324,1436.586182 
	C4192.211426,1430.791992 4204.611328,1426.020874 4216.675781,1420.515869 
	C4371.769043,1349.751221 4526.822754,1278.900513 4681.869629,1208.033447 
	C4819.354492,1145.192993 4956.866699,1082.411499 5094.247559,1019.343872 
	C5119.980957,1007.530396 5146.763672,1000.358582 5174.788574,997.350586 
	C5192.840332,995.413025 5210.708496,997.416626 5230.304688,999.839783 
	C5253.531250,1004.622192 5274.592285,1010.774048 5294.137207,1021.150330 
	C5357.216309,1054.638428 5397.917480,1105.734741 5412.249512,1175.969360 
	C5422.621094,1226.797974 5430.606445,1278.112793 5439.710449,1329.200928 
	C5446.129883,1365.222046 5452.641602,1401.226807 5459.824219,1438.606445 
	C5465.400391,1468.285156 5470.265137,1496.596313 5475.086914,1527.014648 
	C5474.636719,1530.102783 5474.639160,1531.082886 5475.050293,1532.062256 
	C5457.565918,1536.719727 5440.082031,1541.377197 5420.557617,1546.351929 
	C5417.401367,1546.608276 5416.662109,1547.106567 5416.299805,1548.164062 
	C5376.190430,1557.878052 5336.034668,1567.403320 5295.979980,1577.336182 
	C5034.235352,1642.244019 4772.507324,1707.216675 4510.785645,1772.215942 
	C4319.504883,1819.721191 4128.256348,1867.354858 3936.968750,1914.830566 
	C3730.817627,1965.994995 3524.632568,2017.023560 3318.470947,2068.144775 
	C3103.257080,2121.510498 2888.046387,2174.887939 2672.847656,2228.314453 
	C2525.501709,2264.895020 2378.179199,2301.571533 2230.841553,2338.186523 
	C2226.966797,2339.149414 2223.038330,2339.895996 2217.227051,2340.743652 
	C2215.319580,2340.743652 2214.958984,2340.730713 2214.958984,2340.730713 
z"/>
<path fill="#2B3669" opacity="1.000000" stroke="none" 
	d="
M5504.580078,1685.123779 
	C5501.285645,1686.373657 5497.034180,1686.870117 5492.782715,1687.366455 
	C5492.635742,1686.655762 5492.488770,1685.945068 5492.341309,1685.234253 
	C5494.183105,1684.847290 5496.009766,1684.267334 5497.870117,1684.126831 
	C5499.770996,1683.983398 5501.703613,1684.271240 5504.580078,1685.123779 
z"/>
<path fill="#DBDDE1" opacity="1.000000" stroke="none" 
	d="
M2215.015625,2340.603027 
	C2214.958984,2340.730713 2215.319580,2340.743652 2215.363525,2340.920410 
	C2215.407471,2341.097412 2215.332520,2341.135742 2215.145264,2341.152588 
	C2214.958008,2341.169434 2215.072021,2340.475586 2215.015625,2340.603027 
z"/>
<path fill="#DBDDE1" opacity="1.000000" stroke="none" 
	d="
M2182.294434,2349.864746 
	C2182.439941,2350.084961 2182.148926,2349.644287 2182.294434,2349.864746 
z"/>
<path fill="#CFCFCF" opacity="1.000000" stroke="none" 
	d="
M5475.688965,1531.549683 
	C5474.639160,1531.082886 5474.636719,1530.102783 5475.517578,1528.538086 
	C5476.809570,1528.904907 5476.921387,1529.932495 5475.688965,1531.549683 
z"/>
<path fill="#CFCFCF" opacity="1.000000" stroke="none" 
	d="
M5416.913086,1548.441162 
	C5416.662109,1547.106567 5417.401367,1546.608276 5419.124512,1547.046631 
	C5419.283691,1548.344604 5418.548340,1548.776001 5416.913086,1548.441162 
z"/>
<path fill="#2B3669" opacity="1.000000" stroke="none" 
	d="
M5631.888184,4527.961426 
	C5633.320801,4526.545898 5634.753906,4525.130859 5637.584961,4522.099609 
	C5642.312988,4516.452148 5645.643555,4512.421875 5648.974121,4508.391602 
	C5650.687988,4507.409180 5652.588867,4506.653320 5654.087891,4505.411133 
	C5681.003418,4483.109375 5712.087402,4474.284668 5746.785645,4474.652832 
	C5804.754883,4475.268555 5862.735840,4474.811523 5920.711914,4474.810547 
	C6263.237305,4474.806641 6605.762695,4474.805176 6948.288086,4474.802734 
	C6956.228027,4474.802734 6964.167969,4474.802734 6972.911621,4474.802734 
	C6973.841797,4479.703613 6974.916016,4483.394043 6975.162598,4487.139160 
	C6975.511719,4492.447266 6975.250000,4497.795898 6975.250000,4503.126953 
	C6975.249512,4791.008301 6975.248535,5078.889160 6975.256836,5366.770508 
	C6975.257324,5376.765625 6975.359375,5386.761230 6975.281738,5399.010742 
	C6974.670410,5402.077148 6974.703613,5402.867188 6975.248535,5403.636230 
	C6967.947754,5404.055176 6960.647461,5404.838867 6953.346680,5404.839844 
	C6550.098145,5404.901855 6146.850098,5404.903320 5743.601562,5404.868164 
	C5735.610840,5404.867188 5727.620117,5404.367188 5716.512695,5403.561035 
	C5704.923340,5400.803223 5696.451660,5398.584473 5687.979492,5396.366211 
	C5683.977539,5394.073730 5679.975098,5391.781250 5673.940430,5388.348633 
	C5669.329590,5385.993652 5666.750488,5384.778809 5664.171875,5383.563477 
	C5661.374512,5381.045410 5658.577148,5378.526855 5654.049805,5374.468750 
	C5635.986816,5357.734375 5623.399902,5340.029785 5615.867676,5318.882324 
	C5614.999023,5316.444336 5613.434570,5314.255371 5612.192383,5311.950684 
	C5611.563965,5307.630859 5610.935059,5303.311523 5609.887695,5296.554688 
	C5608.859863,5292.115723 5608.250488,5290.114258 5607.641602,5288.112305 
	C5607.776367,5282.135742 5608.026855,5276.158691 5608.028320,5270.182129 
	C5608.088379,5045.340820 5608.125977,4820.500000 5608.619141,4592.499023 
	C5609.833496,4583.548828 5610.596191,4577.758301 5611.358887,4571.967773 
	C5615.715332,4561.708008 5620.072266,4551.448730 5625.758789,4539.133789 
	C5628.688477,4534.039551 5630.288574,4531.000488 5631.888184,4527.961426 
M5980.030762,5073.931641 
	C6025.682617,5119.835449 6080.556152,5140.462402 6145.096680,5132.749023 
	C6261.016602,5118.896484 6338.458496,5005.064453 6309.553223,4892.058594 
	C6284.794434,4795.264160 6190.824707,4734.128418 6094.389648,4747.248535 
	C5992.296387,4761.138672 5907.248047,4859.478516 5930.509766,4978.709961 
	C5937.448730,5014.275391 5953.846191,5045.091797 5980.030762,5073.931641 
z"/>
<path fill="#F4F7F9" opacity="1.000000" stroke="none" 
	d="
M5610.776855,5312.304688 
	C5613.434570,5314.255371 5614.999023,5316.444336 5615.867676,5318.882324 
	C5623.399902,5340.029785 5635.986816,5357.734375 5652.940918,5374.167969 
	C5646.628906,5376.554688 5640.696777,5374.887207 5635.708984,5369.673340 
	C5628.537109,5362.177734 5620.589355,5355.761719 5618.680664,5344.143066 
	C5617.887695,5339.313965 5611.492676,5335.404785 5607.643555,5331.078613 
	C5602.637207,5325.452148 5603.060059,5320.909180 5610.776855,5312.304688 
z"/>
<path fill="#F4F7F9" opacity="1.000000" stroke="none" 
	d="
M5688.023438,5397.778320 
	C5696.451660,5398.584473 5704.923340,5400.803223 5714.636230,5403.734375 
	C5711.729980,5406.309082 5707.738770,5408.772461 5703.400879,5409.901855 
	C5695.811035,5411.877930 5692.819336,5409.486816 5688.023438,5397.778320 
z"/>
<path fill="#F4F7F9" opacity="1.000000" stroke="none" 
	d="
M5610.045410,4572.340820 
	C5610.596191,4577.758301 5609.833496,4583.548828 5608.406738,4590.629883 
	C5602.868164,4585.250488 5601.654297,4578.768555 5610.045410,4572.340820 
z"/>
<path fill="#F4F7F9" opacity="1.000000" stroke="none" 
	d="
M5647.466797,4508.459961 
	C5645.643555,4512.421875 5642.312988,4516.452148 5637.803711,4521.085938 
	C5636.151367,4514.759766 5638.602051,4509.903809 5647.466797,4508.459961 
z"/>
<path fill="#F4F7F9" opacity="1.000000" stroke="none" 
	d="
M5664.162598,5384.985352 
	C5666.750488,5384.778809 5669.329590,5385.993652 5672.574707,5388.075684 
	C5671.558594,5390.436523 5669.856445,5393.197754 5668.197754,5393.171875 
	C5664.247070,5393.109375 5664.574219,5389.279297 5664.162598,5384.985352 
z"/>
<path fill="#F4F7F9" opacity="1.000000" stroke="none" 
	d="
M5630.484375,4528.331055 
	C5630.288574,4531.000488 5628.688477,4534.039551 5625.995605,4537.802734 
	C5624.434570,4534.460938 5624.738281,4530.722168 5630.484375,4528.331055 
z"/>
<path fill="#F4F7F9" opacity="1.000000" stroke="none" 
	d="
M5606.918945,5288.653320 
	C5608.250488,5290.114258 5608.859863,5292.115723 5609.085938,5295.117188 
	C5605.541992,5294.651367 5603.660645,5292.722168 5606.918945,5288.653320 
z"/>
<path fill="#F4F7F9" opacity="1.000000" stroke="none" 
	d="
M6975.479492,5403.140625 
	C6974.703613,5402.867188 6974.670410,5402.077148 6975.646484,5400.887207 
	C6976.145996,5401.250488 6976.001465,5401.962402 6975.479492,5403.140625 
z"/>
<path fill="#FDFDFD" opacity="1.000000" stroke="none" 
	d="
M5979.028320,5072.917969 
	C5953.846191,5045.091797 5937.448730,5014.275391 5930.509766,4978.709961 
	C5907.248047,4859.478516 5992.296387,4761.138672 6094.389648,4747.248535 
	C6190.824707,4734.128418 6284.794434,4795.264160 6309.553223,4892.058594 
	C6338.458496,5005.064453 6261.016602,5118.896484 6145.096680,5132.749023 
	C6080.556152,5140.462402 6025.682617,5119.835449 5979.028320,5072.917969 
z"/>
</svg>